<?xml version="1.0" encoding="UTF-8" standalone="no"?>
<!-- Created with Inkscape (http://www.inkscape.org/) -->

<svg
   xmlns:dc="http://purl.org/dc/elements/1.1/"
   xmlns:cc="http://creativecommons.org/ns#"
   xmlns:rdf="http://www.w3.org/1999/02/22-rdf-syntax-ns#"
   xmlns:svg="http://www.w3.org/2000/svg"
   xmlns="http://www.w3.org/2000/svg"
   xmlns:sodipodi="http://sodipodi.sourceforge.net/DTD/sodipodi-0.dtd"
   xmlns:inkscape="http://www.inkscape.org/namespaces/inkscape"
   width="1400"
   height="500"
   viewBox="0 0 1400 500.00001"
   id="svg4148"
   version="1.1"
   inkscape:version="0.92.3 (2405546, 2018-03-11)"
   sodipodi:docname="important_things.svg">
  <defs
     id="defs4150" />
  <sodipodi:namedview
     id="base"
     pagecolor="#ffffff"
     bordercolor="#666666"
     borderopacity="1.0"
     inkscape:pageopacity="0.0"
     inkscape:pageshadow="2"
     inkscape:zoom="0.49497474"
     inkscape:cx="618.4697"
     inkscape:cy="534.63995"
     inkscape:document-units="px"
     inkscape:current-layer="layer1"
     showgrid="false"
     showguides="false"
     units="px"
     inkscape:window-width="1920"
     inkscape:window-height="1146"
     inkscape:window-x="0"
     inkscape:window-y="0"
     inkscape:window-maximized="1" />
  <metadata
     id="metadata4153">
    <rdf:RDF>
      <cc:Work
         rdf:about="">
        <dc:format>image/svg+xml</dc:format>
        <dc:type
           rdf:resource="http://purl.org/dc/dcmitype/StillImage" />
        <dc:title></dc:title>
      </cc:Work>
    </rdf:RDF>
  </metadata>
  <g
     inkscape:groupmode="layer"
     id="layer4"
     inkscape:label="Layer 2"
     style="display:none">
    <rect
       style="fill:#000000;fill-opacity:1;stroke:#000000;stroke-width:0.77462405;stroke-miterlimit:4;stroke-dasharray:none;stroke-opacity:1"
       id="rect4580"
       width="1399.2253"
       height="499.22537"
       x="0.3873291"
       y="0.38731384" />
  </g>
  <g
     inkscape:label="Layer 1"
     inkscape:groupmode="layer"
     id="layer1"
     transform="translate(0,-552.36216)"
     style="display:inline">
    <rect
       style="opacity:1;fill:none;fill-opacity:1;stroke:#ffffff;stroke-width:3;stroke-miterlimit:4;stroke-dasharray:none;stroke-opacity:1"
       id="rect844"
       width="89.418159"
       height="125.94868"
       x="41.750935"
       y="743.66406"
       rx="0"
       ry="0" />
    <rect
       ry="0"
       rx="0"
       y="743.66406"
       x="177.35236"
       height="125.94868"
       width="89.418159"
       id="rect846"
       style="opacity:1;fill:none;fill-opacity:1;stroke:#ffffff;stroke-width:3;stroke-miterlimit:4;stroke-dasharray:none;stroke-opacity:1" />
    <rect
       style="opacity:1;fill:none;fill-opacity:1;stroke:#ffffff;stroke-width:3;stroke-miterlimit:4;stroke-dasharray:none;stroke-opacity:1"
       id="rect848"
       width="89.418159"
       height="125.94868"
       x="312.9538"
       y="743.66406"
       rx="0"
       ry="0" />
    <path
       style="opacity:1;fill:none;fill-opacity:1;stroke:#ffffff;stroke-width:3;stroke-miterlimit:4;stroke-dasharray:none;stroke-opacity:1"
       d="m 448.55447,743.6648 v 125.94871 h 37.31219 a 224.51735,224.50155 0 0 1 -10.43726,-66.84154 224.51735,224.50155 0 0 1 8.1803,-59.10717 z m 467.94065,0 a 224.51735,224.50155 0 0 1 7.96984,59.10717 224.51735,224.50155 0 0 1 -10.20801,66.84154 H 944.7776 V 743.6648 Z"
       id="rect850"
       inkscape:connector-curvature="0" />
    <rect
       ry="0"
       rx="0"
       y="743.66406"
       x="990.96094"
       height="125.94868"
       width="89.418159"
       id="rect858"
       style="opacity:1;fill:none;fill-opacity:1;stroke:#ffffff;stroke-width:3;stroke-miterlimit:4;stroke-dasharray:none;stroke-opacity:1" />
    <rect
       style="opacity:1;fill:none;fill-opacity:1;stroke:#ffffff;stroke-width:3;stroke-miterlimit:4;stroke-dasharray:none;stroke-opacity:1"
       id="rect860"
       width="89.418159"
       height="125.94868"
       x="1126.5624"
       y="743.66406"
       rx="0"
       ry="0" />
    <rect
       ry="0"
       rx="0"
       y="743.66406"
       x="1262.1638"
       height="125.94868"
       width="89.418159"
       id="rect862"
       style="opacity:1;fill:none;fill-opacity:1;stroke:#ffffff;stroke-width:3;stroke-miterlimit:4;stroke-dasharray:none;stroke-opacity:1" />
    <path
       style="opacity:1;fill:#ffffff;fill-opacity:1;stroke:none;stroke-width:2.667;stroke-miterlimit:4;stroke-dasharray:none;stroke-opacity:1"
       d="m 698.90556,640.50499 145.21537,275.03859 -290.43075,-3e-5 z"
       id="rect866"
       inkscape:connector-curvature="0"
       sodipodi:nodetypes="cccc" />
    <g
       id="g910"
       transform="matrix(0.83324958,0.48103776,-0.48109642,0.83321571,500.6916,-207.48011)"
       style="stroke-width:1.03935611">
      <circle
         r="233.34526"
         cy="804.87482"
         cx="704.07635"
         id="path842"
         style="opacity:1;fill:none;fill-opacity:1;stroke:#ffffff;stroke-width:9.70065594;stroke-miterlimit:4;stroke-dasharray:none;stroke-opacity:1" />
      <path
         sodipodi:nodetypes="cccscccccsccccscc"
         inkscape:connector-curvature="0"
         id="path877"
         d="m 1029.3237,758.57382 c -17.8239,0.004 -34.14837,9.71621 -42.28697,25.15907 -0.01,-0.008 -0.022,-0.008 -0.03,-0.0148 -4.5372,8.67146 -13.79109,14.60989 -24.46969,14.60989 -9.802,0 -18.4039,-5.00328 -23.259,-12.53127 -0.014,0 -0.018,-0.004 -0.028,-0.006 -0.87681,-1.35909 -1.83893,-2.6487 -2.87723,-3.86391 1.23624,15.21011 1.80025,27.06485 -0.216,46.17968 1.14661,-1.31396 2.20325,-2.71709 3.15803,-4.203 4.861,-7.49915 13.4427,-12.48249 23.2222,-12.48242 10.722,0 20.00719,5.98729 24.52429,14.71603 0.023,-0.008 0.04,-0.0255 0.059,-0.0368 8.1484,15.38453 24.42847,25.05753 42.20357,25.07553 h 529.9058 c 26.2573,10e-5 47.5428,-20.72941 47.5429,-46.30044 -10e-5,-25.57103 -21.2856,-46.3005 -47.5429,-46.3005 z"
         style="opacity:1;fill:#ffffff;fill-opacity:1;stroke:#ffffff;stroke-width:6.92904043;stroke-miterlimit:4;stroke-dasharray:none;stroke-opacity:1" />
    </g>
  </g>
</svg>
