<?xml version="1.0" encoding="UTF-8" standalone="no"?>
<!-- Created with Inkscape (http://www.inkscape.org/) -->

<svg
   xmlns:dc="http://purl.org/dc/elements/1.1/"
   xmlns:cc="http://creativecommons.org/ns#"
   xmlns:rdf="http://www.w3.org/1999/02/22-rdf-syntax-ns#"
   xmlns:svg="http://www.w3.org/2000/svg"
   xmlns="http://www.w3.org/2000/svg"
   xmlns:sodipodi="http://sodipodi.sourceforge.net/DTD/sodipodi-0.dtd"
   xmlns:inkscape="http://www.inkscape.org/namespaces/inkscape"
   width="1400"
   height="500"
   viewBox="0 0 1400 500.00001"
   id="svg4148"
   version="1.1"
   inkscape:version="0.91 r13725"
   sodipodi:docname="keepincontact.svg">
  <defs
     id="defs4150" />
  <sodipodi:namedview
     id="base"
     pagecolor="#ffffff"
     bordercolor="#666666"
     borderopacity="1.0"
     inkscape:pageopacity="0.0"
     inkscape:pageshadow="2"
     inkscape:zoom="0.175"
     inkscape:cx="-135.32943"
     inkscape:cy="-477.65482"
     inkscape:document-units="px"
     inkscape:current-layer="layer1"
     showgrid="false"
     showguides="false"
     units="px"
     inkscape:window-width="1920"
     inkscape:window-height="1021"
     inkscape:window-x="0"
     inkscape:window-y="0"
     inkscape:window-maximized="1" />
  <metadata
     id="metadata4153">
    <rdf:RDF>
      <cc:Work
         rdf:about="">
        <dc:format>image/svg+xml</dc:format>
        <dc:type
           rdf:resource="http://purl.org/dc/dcmitype/StillImage" />
        <dc:title></dc:title>
      </cc:Work>
    </rdf:RDF>
  </metadata>
  <g
     inkscape:groupmode="layer"
     id="layer4"
     inkscape:label="Layer 2"
     style="display:none">
    <rect
       style="fill:#000000;fill-opacity:1;stroke:#000000;stroke-width:0.77462405;stroke-miterlimit:4;stroke-dasharray:none;stroke-opacity:1"
       id="rect4580"
       width="1399.2253"
       height="499.22537"
       x="0.3873291"
       y="0.38731384" />
  </g>
  <g
     inkscape:label="Layer 1"
     inkscape:groupmode="layer"
     id="layer1"
     transform="translate(0,-552.36216)"
     style="display:inline">
    <g
       style="fill:#ffffff;fill-opacity:0.7820069"
       id="g4489"
       transform="matrix(0.9112306,0,0,0.9112306,-440.19122,224.02608)">
      <g
         transform="matrix(7.8340178,0,0,7.8340178,-1674.7215,-6118.2611)"
         id="text4383"
         style="font-style:normal;font-variant:normal;font-weight:normal;font-stretch:normal;font-size:40px;line-height:125%;font-family:Sawasdee;-inkscape-font-specification:'Sawasdee, Normal';text-align:start;letter-spacing:0px;word-spacing:0px;writing-mode:lr-tb;text-anchor:start;fill:#ffffff;fill-opacity:0.7820069;stroke:none;stroke-width:1px;stroke-linecap:butt;stroke-linejoin:miter;stroke-opacity:1">
        <path
           style="fill:#ffffff;fill-opacity:0.7820069"
           id="path4428"
           d="m 354.46875,831.44141 c -17.61455,0 -31.91211,14.29756 -31.91211,31.91211 0,17.61454 14.29756,31.9121 31.91211,31.9121 17.61455,0 31.91211,-14.29756 31.91211,-31.9121 0,-17.61455 -14.29756,-31.91211 -31.91211,-31.91211 z m 0,1.69921 c 16.6958,10e-6 30.21289,13.5171 30.21289,30.2129 0,16.6958 -13.51709,30.21093 -30.21289,30.21093 -16.6958,0 -30.21094,-13.51513 -30.21094,-30.21093 0,-16.6958 13.51514,-30.21288 30.21094,-30.2129 z m 0.0488,10.69141 c -2.39584,0 -4.67448,0.52083 -6.83594,1.5625 -2.16146,1.02865 -4.02344,2.41537 -5.58594,4.16016 -1.54947,1.74479 -2.77994,3.82161 -3.6914,6.23047 -0.91146,2.40885 -1.36719,4.93489 -1.36719,7.57812 0,2.64323 0.45573,5.16927 1.36719,7.57813 0.91146,2.39583 2.14193,4.46614 3.6914,6.21093 1.5625,1.7448 3.42448,3.13151 5.58594,4.16016 2.16146,1.04167 4.4401,1.5625 6.83594,1.5625 3.05989,0 5.88541,-0.82031 8.47656,-2.46094 l -0.91797,-1.44531 c -2.40885,1.49739 -4.92839,2.24609 -7.55859,2.24609 -2.10938,0 -4.13411,-0.46875 -6.07422,-1.40625 -1.92708,-0.92448 -3.60026,-2.18099 -5.01953,-3.76953 -1.40626,-1.57552 -2.52604,-3.46354 -3.35938,-5.66406 -0.83333,-2.21355 -1.25,-4.53776 -1.25,-6.97266 0,-2.43489 0.41667,-4.75259 1.25,-6.95312 0.83334,-2.20052 1.95312,-4.08854 3.35938,-5.66406 1.41927,-1.57552 3.09245,-2.82552 5.01953,-3.75 1.94011,-0.9375 3.96484,-1.40625 6.07422,-1.40625 2.07031,0 4.0625,0.45572 5.97656,1.36718 1.92709,0.89844 3.59375,2.11589 5,3.65235 1.41927,1.52344 2.55208,3.35937 3.39844,5.50781 0.84635,2.14843 1.26953,4.40755 1.26953,6.77734 0,1.30208 -0.0977,2.47396 -0.29297,3.51563 -0.19531,1.04167 -0.44271,1.88801 -0.74219,2.53906 -0.29947,0.65104 -0.65104,1.19792 -1.05468,1.64063 -0.39063,0.42968 -0.77474,0.73567 -1.15235,0.91797 -0.3776,0.16927 -0.7552,0.2539 -1.13281,0.2539 -0.96354,0 -1.85547,-0.51432 -2.67578,-1.54297 -0.8073,-1.04166 -1.21094,-2.39583 -1.21094,-4.0625 0,-0.95052 0.17578,-1.97916 0.52734,-3.08593 l 2.30469,-9.70704 -1.83594,0 -0.95703,3.75 c -0.53385,-1.23698 -1.35417,-2.21354 -2.46093,-2.92968 -1.09376,-0.71615 -2.3698,-1.07422 -3.82813,-1.07422 -1.41927,0 -2.85807,0.37109 -4.31641,1.11328 -1.44531,0.74219 -2.72786,1.70573 -3.84765,2.89062 -1.10678,1.17188 -2.01173,2.55209 -2.71485,4.14063 -0.70312,1.58855 -1.05468,3.18359 -1.05468,4.78515 0,2.1875 0.64453,3.97787 1.93359,5.3711 1.28907,1.39323 2.97526,2.08984 5.05859,2.08984 1.79688,0 3.54818,-0.52083 5.25391,-1.5625 1.71875,-1.05468 3.15755,-2.43489 4.31641,-4.14062 0.28646,1.66666 0.94401,3.04687 1.97265,4.14062 1.02865,1.08073 2.20703,1.6211 3.53516,1.6211 0.54687,0 1.08724,-0.10417 1.62109,-0.3125 0.53386,-0.20834 1.07422,-0.57292 1.6211,-1.09375 0.54687,-0.52084 1.02864,-1.17188 1.44531,-1.95313 0.41667,-0.78125 0.7552,-1.80338 1.01562,-3.0664 0.27344,-1.26303 0.41016,-2.67579 0.41016,-4.23829 0,-2.05729 -0.29948,-4.05599 -0.89844,-5.99609 -0.58593,-1.94011 -1.41926,-3.69141 -2.5,-5.25391 -1.0677,-1.57552 -2.3177,-2.95572 -3.75,-4.14062 -1.41926,-1.18489 -3.01432,-2.09636 -4.78515,-2.73438 -1.75782,-0.65104 -3.57422,-0.97656 -5.44922,-0.97656 z m 1.25,11.05469 c 1.57552,0 2.83854,0.53385 3.78906,1.60156 0.95052,1.06771 1.42578,2.44141 1.42578,4.1211 0,1.3802 -0.3125,2.76041 -0.9375,4.14062 -0.61198,1.38021 -1.40625,2.57812 -2.38281,3.59375 -0.96354,1.01562 -2.0638,1.84245 -3.30078,2.48047 -1.22396,0.625 -2.42839,0.9375 -3.61328,0.9375 -1.57552,0 -2.83203,-0.52735 -3.76953,-1.58203 -0.92448,-1.06771 -1.38672,-2.44792 -1.38672,-4.14063 0,-1.35416 0.29947,-2.71484 0.89843,-4.08203 0.61198,-1.36719 1.39323,-2.55859 2.34375,-3.57422 0.96354,-1.02864 2.05729,-1.86849 3.28125,-2.51953 1.23698,-0.65105 2.45443,-0.97656 3.65235,-0.97656 z"
           inkscape:connector-curvature="0" />
      </g>
    </g>
    <g
       style="fill:#ffffff;fill-opacity:1"
       id="g4479"
       transform="matrix(0.77117113,0,0,0.77117113,-553.65429,317.32803)">
      <path
         id="circle4391"
         d="m 2278.7034,395.26571 c -137.9927,0 -250.0001,112.00734 -250.0001,250.00003 0,137.99262 112.0074,249.99996 250.0001,249.99996 137.9927,0 250,-112.00734 250,-249.99996 0,-137.99269 -112.0073,-250.00003 -250,-250.00003 z m 0,13.31164 c 130.7952,8e-5 236.6728,105.8932 236.673,236.68839 -1e-4,130.7952 -105.8778,236.67297 -236.673,236.67297 -130.7952,0 -236.6884,-105.87777 -236.6884,-236.67297 0,-130.79519 105.8932,-236.68824 236.6884,-236.68839 z m 34.6563,83.72606 c -4.3147,0.16843 -8.522,0.96547 -12.5161,2.49404 -10.8166,4.13981 -16.8577,15.38867 -21.5435,27.08251 -4.6859,11.69376 -7.4392,24.04856 -6.8089,33.53939 0.4332,6.52637 4.0509,11.81425 8.1553,14.97951 4.1045,3.16502 8.5255,4.93903 12.409,6.7935 3.8836,1.85455 7.1656,3.70831 9.3641,5.99796 2.1985,2.28965 3.683,4.90033 4.0241,10.03733 0.6573,9.8975 -6.189,34.09639 -16.1118,56.24574 -9.9226,22.14959 -23.4122,43.47113 -31.3207,49.86541 -4.0498,3.27446 -7.0072,3.99237 -10.2209,3.94764 -3.2138,-0.047 -6.8389,-1.18169 -10.8789,-2.75421 -4.0401,-1.57244 -8.405,-3.60897 -13.5719,-4.42191 -5.1668,-0.81294 -11.5116,0.19272 -16.6473,4.34545 -7.5861,6.13365 -15.312,17.13034 -21.2528,29.14803 -5.9408,12.0177 -10.7225,24.62428 -6.4263,35.8498 6.1639,16.10572 23.7873,26.14141 42.0007,30.49454 18.2134,4.35313 38.4464,3.22315 50.1408,-9.86906 24.0578,-26.93281 48.6044,-71.76007 68.3947,-117.34191 19.7902,-45.58185 34.6551,-91.48347 38.2061,-121.38137 2.0815,-17.52501 -11.0565,-32.89865 -26.7765,-42.9341 -11.7899,-7.52661 -25.6751,-12.62311 -38.6192,-12.11829 z m 0.474,13.54126 c 3.0849,-0.0392 6.4562,0.33686 9.9455,1.08634 6.9786,1.49951 14.4412,4.50973 21.0386,8.72146 13.195,8.4236 21.8245,20.67656 20.7021,30.12736 -3.2159,27.07577 -17.7341,72.85652 -37.181,117.64799 -19.447,44.79123 -43.9953,89.01387 -66.1149,113.77681 -6.4025,7.16773 -21.7928,9.44336 -37.1045,5.78369 -15.3116,-3.65958 -29.1213,-13.04348 -32.6672,-22.30854 -1.2876,-3.36447 0.6831,-14.57252 5.9214,-25.16983 5.2387,-10.59731 13.1259,-21.00716 17.6878,-24.69557 2.3022,-1.86136 3.5395,-1.96587 6.2121,-1.54534 2.6727,0.42069 6.4135,1.96391 10.8024,3.6722 4.3889,1.70828 9.5377,3.57341 15.5303,3.65684 5.9927,0.0838 12.6676,-1.95091 18.7894,-6.90067 12.4349,-10.05387 24.7385,-31.64756 35.1001,-54.77687 10.3617,-23.12939 18.2915,-46.57644 17.2288,-62.58032 -0.5187,-7.81381 -3.5612,-14.06967 -7.6964,-18.37634 -4.1351,-4.30659 -9.0006,-6.7758 -13.2352,-8.79791 -4.2346,-2.0222 -7.8974,-3.68278 -10.0067,-5.30943 -2.1094,-1.62666 -2.8273,-2.49388 -3.0143,-5.30935 -0.3768,-5.67582 1.8274,-17.58455 5.8908,-27.72506 4.0634,-10.14066 10.5598,-18.29173 13.9391,-19.58504 2.3486,-0.89888 5.147,-1.35317 8.2318,-1.39242 z"
         style="color:#000000;font-style:normal;font-variant:normal;font-weight:normal;font-stretch:normal;font-size:medium;line-height:normal;font-family:sans-serif;text-indent:0;text-align:start;text-decoration:none;text-decoration-line:none;text-decoration-style:solid;text-decoration-color:#000000;letter-spacing:normal;word-spacing:normal;text-transform:none;direction:ltr;block-progression:tb;writing-mode:lr-tb;baseline-shift:baseline;text-anchor:start;white-space:normal;clip-rule:nonzero;display:inline;overflow:visible;visibility:visible;opacity:1;isolation:auto;mix-blend-mode:normal;color-interpolation:sRGB;color-interpolation-filters:linearRGB;solid-color:#000000;solid-opacity:1;fill:#ffffff;fill-opacity:1;fill-rule:nonzero;stroke:none;stroke-width:1.70000005;stroke-linecap:butt;stroke-linejoin:miter;stroke-miterlimit:4;stroke-dasharray:none;stroke-dashoffset:0;stroke-opacity:1;color-rendering:auto;image-rendering:auto;shape-rendering:auto;text-rendering:auto;enable-background:accumulate"
         inkscape:connector-curvature="0" />
    </g>
    <g
       style="fill:#ffffff;fill-opacity:1"
       id="g4493"
       transform="matrix(0.64017556,-0.29107107,0.29107107,0.64017556,-311.43473,466.61005)">
      <path
         id="rect4393"
         d="m 495.05662,395.26571 c -137.9927,0 -250.00004,112.00734 -250.00004,250.00003 0,137.99262 112.00734,249.99996 250.00004,249.99996 137.9927,0 250.00004,-112.00734 250.00004,-249.99996 0,-137.99269 -112.00734,-250.00003 -250.00004,-250.00003 z m 0,13.31164 c 130.79519,8e-5 236.68832,105.8932 236.68832,236.68839 0,130.7952 -105.89313,236.67297 -236.68832,236.67297 -130.7952,0 -236.67304,-105.87777 -236.67304,-236.67297 0,-130.79519 105.87784,-236.68824 236.67304,-236.68839 z m -142.26702,104.33627 0,5.87551 0,189.1334 88.49996,0 4.376,69.66463 75.15761,-69.66463 116.51574,0 0,-195.00891 -284.54931,0 z m 11.75103,11.75102 261.04725,0 0,171.50686 -109.37025,0 -60.37701,55.97038 -3.5192,-55.97038 -87.78079,0 0,-171.50686 z m 44.49479,28.03114 0,13.32699 184.65023,0 0,-13.32699 -184.65023,0 z m 0,40.57778 0,13.31172 184.65023,0 0,-13.31172 -184.65023,0 z m 0,39.17009 0,13.31172 117.51027,0 0,-13.31172 -117.51027,0 z"
         style="color:#000000;font-style:normal;font-variant:normal;font-weight:normal;font-stretch:normal;font-size:medium;line-height:normal;font-family:sans-serif;text-indent:0;text-align:start;text-decoration:none;text-decoration-line:none;text-decoration-style:solid;text-decoration-color:#000000;letter-spacing:normal;word-spacing:normal;text-transform:none;direction:ltr;block-progression:tb;writing-mode:lr-tb;baseline-shift:baseline;text-anchor:start;white-space:normal;clip-rule:nonzero;display:inline;overflow:visible;visibility:visible;opacity:1;isolation:auto;mix-blend-mode:normal;color-interpolation:sRGB;color-interpolation-filters:linearRGB;solid-color:#000000;solid-opacity:1;fill:#ffffff;fill-opacity:1;fill-rule:nonzero;stroke:none;stroke-width:1.5;stroke-linecap:butt;stroke-linejoin:miter;stroke-miterlimit:4;stroke-dasharray:none;stroke-dashoffset:0;stroke-opacity:1;color-rendering:auto;image-rendering:auto;shape-rendering:auto;text-rendering:auto;enable-background:accumulate"
         inkscape:connector-curvature="0" />
    </g>
    <g
       id="g4601"
       transform="matrix(0.93469925,0.25002852,-0.25002852,0.93469925,251.29319,-263.46439)"
       style="fill:#ffffff;fill-opacity:0.54671284">
      <g
         transform="matrix(0.6228274,0,0,0.6228274,-188.54869,400.47301)"
         id="g4482"
         style="fill:#ffffff;fill-opacity:0.54671284">
        <path
           style="color:#000000;font-style:normal;font-variant:normal;font-weight:normal;font-stretch:normal;font-size:medium;line-height:normal;font-family:sans-serif;text-indent:0;text-align:start;text-decoration:none;text-decoration-line:none;text-decoration-style:solid;text-decoration-color:#000000;letter-spacing:normal;word-spacing:normal;text-transform:none;direction:ltr;block-progression:tb;writing-mode:lr-tb;baseline-shift:baseline;text-anchor:start;white-space:normal;clip-rule:nonzero;display:inline;overflow:visible;visibility:visible;opacity:1;isolation:auto;mix-blend-mode:normal;color-interpolation:sRGB;color-interpolation-filters:linearRGB;solid-color:#000000;solid-opacity:1;fill:#ffffff;fill-opacity:0.54671284;fill-rule:nonzero;stroke:none;stroke-width:1.70000005;stroke-linecap:butt;stroke-linejoin:miter;stroke-miterlimit:4;stroke-dasharray:none;stroke-dashoffset:0;stroke-opacity:1;color-rendering:auto;image-rendering:auto;shape-rendering:auto;text-rendering:auto;enable-background:accumulate"
           d="m 1695.3444,395.26571 c -137.9927,-8e-5 -250,112.00726 -250,250.00003 0,137.9927 112.0073,250.00004 250,249.99996 137.9927,0 250,-112.00734 250,-249.99996 0,-137.99269 -112.0073,-250.00003 -250,-250.00003 z m 0,13.31164 c 130.7952,8e-5 236.6883,105.8932 236.6883,236.68839 0,130.7952 -105.8931,236.67297 -236.6883,236.67297 -130.7952,8e-5 -236.6883,-105.87777 -236.6883,-236.67297 0,-130.79527 105.8931,-236.68839 236.6883,-236.68839 z"
           id="circle4389"
           inkscape:connector-curvature="0" />
        <g
           id="g4413"
           transform="matrix(7.8340178,0,0,7.8340178,-1656.4952,-6111.9004)"
           style="fill:#ffffff;fill-opacity:0.54671284">
          <path
             inkscape:connector-curvature="0"
             id="rect4404"
             d="m 408.44727,849.82617 0,0.75 0,24.67969 38.82031,0 0,-25.42969 -38.82031,0 z m 1.5,1.5 35.82031,0 0,22.42969 -35.82031,0 0,-22.42969 z"
             style="color:#000000;font-style:normal;font-variant:normal;font-weight:normal;font-stretch:normal;font-size:medium;line-height:normal;font-family:sans-serif;text-indent:0;text-align:start;text-decoration:none;text-decoration-line:none;text-decoration-style:solid;text-decoration-color:#000000;letter-spacing:normal;word-spacing:normal;text-transform:none;direction:ltr;block-progression:tb;writing-mode:lr-tb;baseline-shift:baseline;text-anchor:start;white-space:normal;clip-rule:nonzero;display:inline;overflow:visible;visibility:visible;opacity:1;isolation:auto;mix-blend-mode:normal;color-interpolation:sRGB;color-interpolation-filters:linearRGB;solid-color:#000000;solid-opacity:1;fill:#ffffff;fill-opacity:0.54671284;fill-rule:nonzero;stroke:none;stroke-width:1.5;stroke-linecap:butt;stroke-linejoin:miter;stroke-miterlimit:4;stroke-dasharray:none;stroke-dashoffset:0;stroke-opacity:1;color-rendering:auto;image-rendering:auto;shape-rendering:auto;text-rendering:auto;enable-background:accumulate" />
          <path
             style="color:#000000;font-style:normal;font-variant:normal;font-weight:normal;font-stretch:normal;font-size:medium;line-height:normal;font-family:sans-serif;text-indent:0;text-align:start;text-decoration:none;text-decoration-line:none;text-decoration-style:solid;text-decoration-color:#000000;letter-spacing:normal;word-spacing:normal;text-transform:none;direction:ltr;block-progression:tb;writing-mode:lr-tb;baseline-shift:baseline;text-anchor:start;white-space:normal;clip-rule:nonzero;display:inline;overflow:visible;visibility:visible;opacity:1;isolation:auto;mix-blend-mode:normal;color-interpolation:sRGB;color-interpolation-filters:linearRGB;solid-color:#000000;solid-opacity:1;fill:#ffffff;fill-opacity:0.54671284;fill-rule:evenodd;stroke:none;stroke-width:1.70000005;stroke-linecap:butt;stroke-linejoin:miter;stroke-miterlimit:4;stroke-dasharray:none;stroke-dashoffset:0;stroke-opacity:1;color-rendering:auto;image-rendering:auto;shape-rendering:auto;text-rendering:auto;enable-background:accumulate"
             d="m 445.5625,850.23995 -17.79492,17.62305 -17.52735,-17.35547 -1.19531,1.20899 18.72266,18.53906 18.99219,-18.80664 -1.19727,-1.20899 z"
             id="path4407"
             inkscape:connector-curvature="0" />
        </g>
      </g>
    </g>
  </g>
</svg>
