<?xml version="1.0" encoding="UTF-8" standalone="no"?>
<!-- Created with Inkscape (http://www.inkscape.org/) -->

<svg
   xmlns:dc="http://purl.org/dc/elements/1.1/"
   xmlns:cc="http://creativecommons.org/ns#"
   xmlns:rdf="http://www.w3.org/1999/02/22-rdf-syntax-ns#"
   xmlns:svg="http://www.w3.org/2000/svg"
   xmlns="http://www.w3.org/2000/svg"
   xmlns:sodipodi="http://sodipodi.sourceforge.net/DTD/sodipodi-0.dtd"
   xmlns:inkscape="http://www.inkscape.org/namespaces/inkscape"
   id="svg2"
   version="1.1"
   inkscape:version="0.91 r13725"
   width="1400"
   height="500"
   viewBox="0 0 1400 500"
   sodipodi:docname="responsive.svg">
  <metadata
     id="metadata8">
    <rdf:RDF>
      <cc:Work
         rdf:about="">
        <dc:format>image/svg+xml</dc:format>
        <dc:type
           rdf:resource="http://purl.org/dc/dcmitype/StillImage" />
        <dc:title></dc:title>
      </cc:Work>
    </rdf:RDF>
  </metadata>
  <defs
     id="defs6" />
  <sodipodi:namedview
     pagecolor="#ffffff"
     bordercolor="#666666"
     borderopacity="1"
     objecttolerance="10"
     gridtolerance="10"
     guidetolerance="10"
     inkscape:pageopacity="0"
     inkscape:pageshadow="2"
     inkscape:window-width="1920"
     inkscape:window-height="1021"
     id="namedview4"
     showgrid="false"
     inkscape:zoom="0.35355339"
     inkscape:cx="1440.2118"
     inkscape:cy="845.04234"
     inkscape:window-x="0"
     inkscape:window-y="0"
     inkscape:window-maximized="1"
     inkscape:current-layer="layer2" />
  <g
     inkscape:groupmode="layer"
     id="layer2"
     inkscape:label="Layer 2"
     style="display:inline"
     transform="translate(0,452)">
    <g
       id="g4405"
       transform="matrix(19.098776,0,0,19.098776,-313.26246,-637.42972)">
      <path
         id="rect4334"
         d="m 18.966797,21.808594 c -0.277857,0 -0.501953,0.224096 -0.501953,0.501953 l 0,11.626953 c 0,0.277858 0.224096,0.501953 0.501953,0.501953 l 0.724609,0 0,-0.148437 c 0,-0.125136 0.101431,-0.226563 0.226563,-0.226563 l 0.824219,0 c 0.125119,0 0.226562,0.101431 0.226562,0.226563 l 0,0.148437 13.410156,0 0,-0.148437 c 0,-0.125136 0.101431,-0.226563 0.226563,-0.226563 l 0.824219,0 c 0.125118,0 0.226562,0.101431 0.226562,0.226563 l 0,0.148437 0.724609,0 c 0.277857,0 0.501953,-0.224095 0.501953,-0.501953 l 0,-11.626953 c 0,-0.277857 -0.224096,-0.501953 -0.501953,-0.501953 l -17.414062,0 z m 8.689453,0.414062 a 0.24628332,0.24628332 0 0 1 0.01758,0 0.24628332,0.24628332 0 0 1 0.246094,0.246094 0.24628332,0.24628332 0 0 1 -0.246094,0.246094 0.24628332,0.24628332 0 0 1 -0.246094,-0.246094 0.24628332,0.24628332 0 0 1 0.228516,-0.246094 z m -8.576172,0.66211 17.185547,0 0,10.216796 -17.185547,0 0,-10.216796 z"
         style="fill:#ffffff;fill-opacity:1;stroke:none;stroke-width:1;stroke-miterlimit:4;stroke-dasharray:none;stroke-opacity:1"
         inkscape:connector-curvature="0" />
      <path
         id="path4337"
         d="m 39.464844,9.7089844 c -0.277858,0 -0.501953,0.2240958 -0.501953,0.5019536 l 0,20.46875 c 0,0.277858 0.224095,0.501953 0.501953,0.501953 l 29.710937,0 c 0.277857,0 0.501953,-0.224096 0.501953,-0.501953 l 0,-20.46875 c 0,-0.2778578 -0.224096,-0.5019536 -0.501953,-0.5019536 l -29.710937,0 z m 14.855468,0.3593746 a 0.43674242,0.43674242 0 0 1 0.4375,0.4375 0.43674242,0.43674242 0 0 1 -0.4375,0.4375 0.43674242,0.43674242 0 0 1 -0.4375,-0.4375 0.43674242,0.43674242 0 0 1 0.4375,-0.4375 z m -14.685546,0.964844 29.371093,0 0,17.648438 -29.371093,0 0,-17.648438 z m 14.685546,17.982422 a 0.84541118,0.84541118 0 0 1 0.845704,0.845703 0.84541118,0.84541118 0 0 1 -0.845704,0.845703 0.84541118,0.84541118 0 0 1 -0.845703,-0.845703 0.84541118,0.84541118 0 0 1 0.845703,-0.845703 z"
         style="fill:#ffffff;fill-opacity:1;stroke:none;stroke-width:1;stroke-miterlimit:4;stroke-dasharray:none;stroke-opacity:1"
         inkscape:connector-curvature="0" />
      <path
         id="path4339"
         d="m 72.34375,22.302734 c -0.277858,0 -0.501953,0.224096 -0.501953,0.501954 l 0,12.55664 c 0,0.277858 0.224095,0.501953 0.501953,0.501953 l 9.650391,0 c 0.27786,0 0.5,-0.224095 0.5,-0.501953 l 0,-12.55664 c 0,-0.277857 -0.22214,-0.501954 -0.5,-0.501954 l -9.650391,0 z m 4.824219,0.527344 a 0.29277959,0.29277959 0 0 1 0.292969,0.292969 0.29277959,0.29277959 0 0 1 -0.292969,0.292969 0.29277959,0.29277959 0 0 1 -0.292969,-0.292969 0.29277959,0.29277959 0 0 1 0.292969,-0.292969 z m -4.783203,0.910156 9.566406,0 0,10.66211 -9.566406,0 0,-10.66211 z m 4.169922,11.003907 1.226562,0 c 0.186358,0 0.337891,0.151513 0.337891,0.33789 0,0.186381 -0.151514,0.337891 -0.337891,0.337891 l -1.226562,0 c -0.186359,0 -0.337891,-0.151513 -0.337891,-0.337891 0,-0.186383 0.151512,-0.33789 0.337891,-0.33789 z"
         style="fill:#ffffff;fill-opacity:1;stroke:none;stroke-width:1;stroke-miterlimit:4;stroke-dasharray:none;stroke-opacity:1"
         inkscape:connector-curvature="0" />
      <path
         id="path4341"
         d="m 85.048828,25.3125 c -0.277858,0 -0.5,0.224096 -0.5,0.501953 l 0,9.546875 c 0,0.277858 0.222142,0.501953 0.5,0.501953 l 4.152344,0 c 0.27786,0 0.501953,-0.224095 0.501953,-0.501953 l 0,-9.546875 c 0,-0.277857 -0.224093,-0.501953 -0.501953,-0.501953 l -4.152344,0 z m 0.257813,0.664062 a 0.19512334,0.19512334 0 0 1 0.01367,0 0.19512334,0.19512334 0 0 1 0.195313,0.19336 0.19512334,0.19512334 0 0 1 -0.195313,0.195312 0.19512334,0.19512334 0 0 1 -0.195312,-0.195312 0.19512334,0.19512334 0 0 1 0.181641,-0.19336 z m 1.548828,0.265626 0.539062,0 c 0.08187,0 0.148438,0.06461 0.148438,0.146484 0,0.08188 -0.06656,0.148437 -0.148438,0.148437 l -0.539062,0 c -0.08187,0 -0.148438,-0.06656 -0.148438,-0.148437 0,-0.08188 0.06656,-0.146484 0.148438,-0.146484 z m -1.996094,0.427734 4.53125,0 0,7.998047 -4.53125,0 0,-7.998047 z m 1.853516,8.185547 0.824218,0 c 0.12512,0 0.226563,0.10143 0.226563,0.226562 0,0.125135 -0.10143,0.226563 -0.226563,0.226563 l -0.824218,0 c -0.125119,0 -0.226563,-0.10143 -0.226563,-0.226563 0,-0.125136 0.101432,-0.226562 0.226563,-0.226562 z"
         style="fill:#ffffff;fill-opacity:1;stroke:none;stroke-width:1;stroke-miterlimit:4;stroke-dasharray:none;stroke-opacity:1"
         inkscape:connector-curvature="0" />
      <path
         id="path4343"
         d="m 16.402344,34.607422 0,0.779297 c 0,0.277858 0.224095,0.501953 0.501953,0.501953 l 21.537109,0 c 0.277857,0 0.501953,-0.224095 0.501953,-0.501953 l 0,-0.779297 -9.333984,0 0,0.199219 c 0,0.125132 -0.101443,0.226562 -0.226563,0.226562 l -3.417968,0 c -0.125132,0 -0.226563,-0.101426 -0.226563,-0.226562 l 0,-0.199219 -9.335937,0 z"
         style="fill:#ffffff;fill-opacity:1;stroke:none;stroke-width:1;stroke-miterlimit:4;stroke-dasharray:none;stroke-opacity:1"
         inkscape:connector-curvature="0" />
      <path
         id="rect4398"
         d="m 51.625,31.40625 -0.337891,3.769531 -1.810547,0 c -0.37648,0 -0.679687,0.303208 -0.679687,0.679688 l 11.15625,0 c 0,-0.37648 -0.303207,-0.679688 -0.679687,-0.679688 l -1.742188,0 -0.337891,-3.769531 -5.568359,0 z"
         style="fill:#ffffff;fill-opacity:1;stroke:none;stroke-width:1;stroke-miterlimit:4;stroke-dasharray:none;stroke-opacity:1"
         inkscape:connector-curvature="0" />
    </g>
  </g>
</svg>
