<?xml version="1.0" encoding="UTF-8" standalone="no"?>
<!-- Created with Inkscape (http://www.inkscape.org/) -->

<svg
   xmlns:dc="http://purl.org/dc/elements/1.1/"
   xmlns:cc="http://creativecommons.org/ns#"
   xmlns:rdf="http://www.w3.org/1999/02/22-rdf-syntax-ns#"
   xmlns:svg="http://www.w3.org/2000/svg"
   xmlns="http://www.w3.org/2000/svg"
   xmlns:sodipodi="http://sodipodi.sourceforge.net/DTD/sodipodi-0.dtd"
   xmlns:inkscape="http://www.inkscape.org/namespaces/inkscape"
   width="1400"
   height="500"
   viewBox="0 0 1400 500.00001"
   id="svg4148"
   version="1.1"
   inkscape:version="0.91 r13725"
   sodipodi:docname="tailoredsolutions.svg">
  <defs
     id="defs4150" />
  <sodipodi:namedview
     id="base"
     pagecolor="#ffffff"
     bordercolor="#666666"
     borderopacity="1.0"
     inkscape:pageopacity="0.0"
     inkscape:pageshadow="2"
     inkscape:zoom="0.24748737"
     inkscape:cx="1794.879"
     inkscape:cy="-703.98555"
     inkscape:document-units="px"
     inkscape:current-layer="layer1"
     showgrid="false"
     showguides="false"
     units="px"
     inkscape:window-width="1920"
     inkscape:window-height="1021"
     inkscape:window-x="0"
     inkscape:window-y="0"
     inkscape:window-maximized="1" />
  <metadata
     id="metadata4153">
    <rdf:RDF>
      <cc:Work
         rdf:about="">
        <dc:format>image/svg+xml</dc:format>
        <dc:type
           rdf:resource="http://purl.org/dc/dcmitype/StillImage" />
        <dc:title></dc:title>
      </cc:Work>
    </rdf:RDF>
  </metadata>
  <g
     inkscape:groupmode="layer"
     id="layer4"
     inkscape:label="Layer 2"
     style="display:none">
    <rect
       style="fill:#000000;fill-opacity:1;stroke:#000000;stroke-width:0.77462405;stroke-miterlimit:4;stroke-dasharray:none;stroke-opacity:1"
       id="rect4580"
       width="1399.2253"
       height="499.22537"
       x="0.3873291"
       y="0.38731384" />
  </g>
  <g
     inkscape:label="Layer 1"
     inkscape:groupmode="layer"
     id="layer1"
     transform="translate(0,-552.36216)"
     style="display:inline">
    <path
       style="color:#000000;font-style:normal;font-variant:normal;font-weight:normal;font-stretch:normal;font-size:medium;line-height:normal;font-family:sans-serif;text-indent:0;text-align:start;text-decoration:none;text-decoration-line:none;text-decoration-style:solid;text-decoration-color:#000000;letter-spacing:normal;word-spacing:normal;text-transform:none;direction:ltr;block-progression:tb;writing-mode:lr-tb;baseline-shift:baseline;text-anchor:start;white-space:normal;clip-rule:nonzero;display:inline;overflow:visible;visibility:visible;opacity:1;isolation:auto;mix-blend-mode:normal;color-interpolation:sRGB;color-interpolation-filters:linearRGB;solid-color:#000000;solid-opacity:1;fill:#ffffff;fill-opacity:1;fill-rule:nonzero;stroke:none;stroke-width:10;stroke-linecap:butt;stroke-linejoin:miter;stroke-miterlimit:4;stroke-dasharray:none;stroke-dashoffset:0;stroke-opacity:1;color-rendering:auto;image-rendering:auto;shape-rendering:auto;text-rendering:auto;enable-background:accumulate"
       d="M 1078.1777 -122.85938 C 1065.9314 -122.76788 1057.9615 -118.41389 1053.709 -111.97852 C 1049.4565 -105.54314 1048.4628 -98.239681 1046.4883 -91.619141 C 1044.5137 -84.998611 1041.9799 -79.140804 1035.7168 -74.271484 C 1029.4537 -69.402154 1018.9503 -65.335817 1000.4512 -64.179688 C 979.30923 -62.858398 968.1448 -66.548447 961.50391 -71.623047 C 954.86301 -76.697647 952.08864 -83.707013 949.06055 -91.220703 C 946.03246 -98.734383 942.48293 -107.3087 933.22656 -111.10352 C 923.9702 -114.89834 911.22095 -113.55115 890.18555 -105.91992 C 869.15014 -98.288702 858.50222 -91.149724 853.83203 -82.302734 C 849.16184 -73.455734 851.93589 -64.598025 854.42969 -56.890625 C 856.92349 -49.183215 859.28782 -42.025167 857.44531 -33.873047 C 855.60281 -25.720927 849.40144 -15.731173 832.33008 -3.1894531 C 815.25871 9.3522669 803.87111 12.284029 795.54102 11.605469 C 787.21092 10.926909 781.08797 6.5312663 774.47852 1.8476562 C 767.86906 -2.8359437 760.24664 -8.1305194 750.4082 -6.3183594 C 740.56976 -4.5061994 730.57231 3.52011 717.00195 21.3125 C 714.1941 24.993941 711.76869 28.402869 709.66406 31.605469 C 713.62126 28.314742 720.68779 23.534301 729.25977 21.953125 C 739.88809 9.1069738 747.30776 4.4201903 752.21875 3.515625 C 757.76866 2.493385 762.18098 5.3882694 768.69727 10.005859 C 775.21355 14.623449 783.30597 20.641796 794.72852 21.572266 C 806.15107 22.502736 820.05231 18.238331 838.25 4.8691406 C 856.4477 -8.5000594 864.67271 -20.491432 867.19922 -31.669922 C 869.72573 -42.848422 866.40201 -52.36998 863.94336 -59.96875 C 861.48471 -67.56753 860.04131 -72.644146 862.67578 -77.634766 C 865.31025 -82.625376 873.49075 -89.225861 893.5957 -96.519531 C 913.70064 -103.81321 924.21009 -103.99224 929.43164 -101.85156 C 934.65319 -99.710892 936.79974 -94.890212 939.78516 -87.482422 C 942.77057 -80.074632 946.32737 -70.636194 955.43359 -63.677734 C 964.53982 -56.719264 978.5374 -52.790749 1001.0742 -54.199219 C 1020.7939 -55.431629 1033.4587 -59.850333 1041.8535 -66.376953 C 1050.2483 -72.903583 1053.8629 -81.351966 1056.0723 -88.759766 C 1058.2816 -96.167566 1059.5065 -102.61451 1062.0508 -106.46484 C 1064.5951 -110.31516 1068.0015 -112.78281 1078.252 -112.85938 C 1084.1102 -112.90317 1092.0215 -111.93901 1102.4492 -109.57227 C 1123.3059 -104.83853 1132.2452 -99.307264 1135.4805 -94.683594 C 1138.7157 -90.059914 1137.9135 -84.843737 1136.4199 -76.998047 C 1134.9264 -69.152357 1132.8163 -59.290592 1136.7148 -48.513672 C 1140.6134 -37.736752 1150.2657 -26.862731 1169.9863 -15.863281 C 1189.707 -4.8638412 1204.0302 -2.3654775 1215.248 -4.7109375 C 1226.4659 -7.0563975 1233.748 -14.032741 1239.6387 -19.425781 C 1245.5294 -24.818831 1249.5457 -28.241229 1255.1797 -27.917969 C 1260.8137 -27.594709 1270.2167 -22.896892 1285.2031 -7.6386719 C 1300.1896 7.6195381 1304.7194 17.105221 1304.9414 22.744141 C 1305.1634 28.383061 1301.6699 32.338019 1296.1719 38.130859 C 1290.6739 43.923699 1283.5661 51.080026 1281.0195 62.253906 C 1278.4729 73.427796 1280.7141 87.793884 1291.3574 107.70898 C 1302.0007 127.62409 1312.6992 137.47078 1323.4043 141.5625 C 1334.1094 145.65421 1344.0076 143.71932 1351.8789 142.36719 C 1359.7502 141.01505 1364.98 140.309 1369.5449 143.62695 C 1374.1098 146.9449 1379.4797 155.9816 1383.8379 176.91992 C 1388.1961 197.85825 1386.8775 208.28664 1384.0156 213.15039 C 1381.1538 218.01413 1376.0773 219.45274 1368.3203 221.35352 C 1360.5633 223.2543 1350.7166 225.42989 1342.5332 233.45312 C 1334.3498 241.47637 1328.4675 254.77534 1326.6543 277.2832 C 1324.8411 299.79106 1328.517 313.85806 1335.3105 323.08789 C 1342.1041 332.31772 1351.4774 336.04206 1358.8301 339.16016 C 1366.1828 342.27827 1370.9634 344.51027 1373.0098 349.76953 C 1375.0562 355.02879 1374.6889 365.5352 1367.0352 385.50586 C 1359.3814 405.4765 1352.6347 413.53773 1347.5977 416.08203 C 1342.5606 418.62633 1337.5103 417.09098 1329.957 414.49609 C 1322.4037 411.90121 1312.9428 408.40725 1301.7207 410.73242 C 1290.4986 413.05759 1278.362 421.06499 1264.668 439.01953 C 1250.974 456.97407 1246.4625 470.79482 1247.1875 482.23242 C 1247.9125 493.66992 1253.7835 501.8724 1258.2832 508.4707 C 1262.7829 515.0691 1265.5984 519.5317 1264.4766 525.0625 C 1263.3547 530.5933 1257.3646 539.23203 1240.1289 551.89453 C 1222.8932 564.55693 1212.859 567.69012 1207.2461 567.10742 C 1201.6331 566.52462 1198.2149 562.50273 1193.2637 556.23633 C 1188.3124 549.96983 1182.2425 541.91754 1171.5449 537.80664 C 1160.8473 533.69564 1146.3091 533.86961 1125.082 541.57031 C 1103.8549 549.27111 1092.5852 558.45896 1087.0117 568.47266 C 1081.4382 578.48636 1081.9439 588.55957 1082.1621 596.54297 C 1082.3804 604.52637 1082.3361 609.80156 1078.4023 613.84766 C 1074.4686 617.89376 1064.7595 621.92381 1043.4141 623.25781 C 1022.0686 624.59181 1011.9325 621.80224 1007.5254 618.27734 C 1003.1183 614.75234 1002.4183 609.52282 1001.6406 601.57422 C 1000.863 593.62572 1000.1091 583.56807 993.33203 574.32617 C 986.55494 565.08427 974.22971 557.37095 952.20898 552.37305 C 930.18826 547.37505 915.74119 549.01283 905.63867 554.42383 C 895.53615 559.83483 890.51529 568.58172 886.38281 575.41602 C 882.25033 582.25032 879.36188 586.66431 873.86523 587.94141 C 868.36859 589.21861 858.0219 587.35941 839.34375 576.94141 C 820.6656 566.52351 813.6474 558.69771 811.8457 553.34961 C 810.044 548.00161 812.28258 543.22243 815.92578 536.11523 C 819.56899 529.00803 824.37259 520.13997 823.66797 508.70117 C 823.27004 502.24113 821.11527 495.23227 816.46875 487.45508 C 812.70291 483.83223 809.58712 479.91054 807.08203 474.66992 C 805.21385 472.50128 803.18471 470.28399 800.94141 468 C 785.11849 451.8902 772.07851 445.45693 760.6543 444.54688 C 749.23009 443.63683 740.27888 448.28012 733.10742 451.79492 C 725.93596 455.30982 721.11747 457.46195 715.80273 455.56445 C 710.488 453.66695 702.78966 446.51076 692.70898 427.64844 C 691.50456 425.39479 690.42667 423.26951 689.45312 421.25195 C 686.1222 421.28143 682.69001 420.93474 679.0293 420.09961 C 678.59515 420.00057 678.16587 419.89057 677.74219 419.77344 C 679.41434 423.61961 681.44403 427.78706 683.88867 432.36133 C 694.43587 452.09657 703.01796 461.61862 712.43945 464.98242 C 721.86094 468.34612 730.23382 464.34059 737.50781 460.77539 C 744.78181 457.21029 751.53 453.85192 759.86133 454.51562 C 768.19266 455.17922 778.96306 459.89511 793.80664 475.00781 C 808.65021 490.12061 813.17169 500.97451 813.68555 509.31641 C 814.1994 517.65841 810.72068 524.34589 807.02539 531.55469 C 803.3301 538.76349 799.17526 547.06247 802.36914 556.54297 C 805.56302 566.02337 814.9301 574.77568 834.47266 585.67578 C 854.01521 596.57588 866.38263 599.94574 876.12695 597.68164 C 885.87128 595.41754 890.74986 587.52184 894.94141 580.58984 C 899.13296 573.65784 902.99202 567.18428 910.35938 563.23828 C 917.72672 559.29228 929.33833 557.4364 949.99609 562.125 C 970.65388 566.8136 980.32718 573.50033 985.26953 580.24023 C 990.21188 586.98003 990.89872 594.48468 991.6875 602.54688 C 992.47628 610.60908 993.46687 619.83724 1001.2793 626.08594 C 1009.0917 632.33454 1021.7038 634.63408 1044.0371 633.23828 C 1066.3704 631.84258 1078.5987 627.99106 1085.5723 620.81836 C 1092.5458 613.64566 1092.3796 604.36703 1092.1582 596.26953 C 1091.9368 588.17193 1091.6854 580.63854 1095.75 573.33594 C 1099.8146 566.03324 1108.5789 558.1948 1128.4922 550.9707 C 1148.4054 543.7466 1160.1576 544.14262 1167.959 547.14062 C 1175.7604 550.13853 1180.3959 556.07945 1185.418 562.43555 C 1190.44 568.79155 1196.2625 576.01953 1206.2129 577.05273 C 1216.1633 578.08583 1228.0155 573.20152 1246.0488 559.95312 C 1264.0822 546.70463 1272.2867 536.85518 1274.2754 527.05078 C 1276.2641 517.24638 1271.1089 509.52864 1266.5449 502.83594 C 1261.9809 496.14324 1257.6967 489.94266 1257.168 481.60156 C 1256.6392 473.26046 1259.7727 461.92727 1272.6191 445.08398 C 1285.4656 428.24073 1295.5662 422.2191 1303.75 420.52344 C 1311.9338 418.82777 1319.0477 421.32114 1326.709 423.95312 C 1334.3703 426.5851 1343.176 429.51821 1352.1055 425.00781 C 1361.0349 420.49741 1368.3651 409.97886 1376.373 389.08398 C 1384.381 368.18909 1385.9577 355.46762 1382.3301 346.14453 C 1378.7024 336.82144 1370.1922 333.11776 1362.7344 329.95508 C 1355.2765 326.79239 1348.3195 323.89121 1343.3652 317.16016 C 1338.4109 310.42911 1334.9201 299.2007 1336.6211 278.08594 C 1338.3221 256.97117 1343.5653 246.44483 1349.5332 240.59375 C 1355.5011 234.74266 1362.8333 232.99437 1370.7012 231.06641 C 1378.5691 229.13846 1387.5615 226.84476 1392.6348 218.22266 C 1397.708 209.60057 1398.1888 196.78818 1393.6289 174.88086 C 1389.069 152.97352 1383.5161 141.41887 1375.4238 135.53711 C 1367.3315 129.65534 1358.1694 131.14025 1350.1855 132.51172 C 1342.2017 133.88318 1334.7816 135.20467 1326.9746 132.2207 C 1319.1677 129.23673 1310.1623 121.67856 1300.1777 102.99609 C 1290.1932 84.313614 1288.9124 72.623369 1290.7695 64.474609 C 1292.6267 56.325849 1297.8472 50.891285 1303.4238 45.015625 C 1309.0004 39.139975 1315.3271 32.347782 1314.9336 22.351562 C 1314.5401 12.355343 1308.0179 1.3178656 1292.3379 -14.646484 C 1276.6579 -30.610834 1265.7395 -37.329294 1255.752 -37.902344 C 1245.7644 -38.475394 1238.8597 -32.272874 1232.8848 -26.802734 C 1226.9099 -21.332584 1221.382 -16.208517 1213.2012 -14.498047 C 1205.0204 -12.787577 1193.3575 -14.279016 1174.8574 -24.597656 C 1156.3574 -34.916296 1148.9602 -44.056816 1146.1172 -51.916016 C 1143.2741 -59.775206 1144.7292 -67.171066 1146.2441 -75.128906 C 1147.7591 -83.086746 1149.4091 -92.219346 1143.6738 -100.41602 C 1137.9386 -108.61269 1126.484 -114.37141 1104.6621 -119.32422 C 1093.7507 -121.80074 1085.1749 -122.91163 1078.1777 -122.85938 z M 1018.1055 22.212891 C 938.01465 22.213401 867.32571 62.661481 825.34375 124.22656 C 828.2822 125.50503 831.17628 127.20235 833.79102 129.49609 C 873.97418 70.749319 941.51022 32.213381 1018.1055 32.212891 C 1141.4127 32.212691 1241.2659 132.0658 1241.2656 255.37305 C 1241.2658 378.68028 1141.4127 478.5334 1018.1055 478.5332 C 1017.0471 478.5332 1015.9943 478.50686 1014.9395 478.49219 C 1014.1493 479.38737 1013.8404 479.89958 1013.7285 480.10352 C 1013.8155 480.42792 1013.8207 480.34427 1014.125 481.70117 C 1014.4509 483.15422 1015.0564 485.34697 1015.2969 488.49805 C 1016.2332 488.50914 1017.1665 488.5332 1018.1055 488.5332 C 1146.8171 488.5334 1251.2659 384.08469 1251.2656 255.37305 C 1251.2659 126.66139 1146.8171 22.212681 1018.1055 22.212891 z "
       transform="translate(0,552.36216)"
       id="path4819" />
    <path
       style="color:#000000;font-style:normal;font-variant:normal;font-weight:normal;font-stretch:normal;font-size:medium;line-height:normal;font-family:sans-serif;text-indent:0;text-align:start;text-decoration:none;text-decoration-line:none;text-decoration-style:solid;text-decoration-color:#000000;letter-spacing:normal;word-spacing:normal;text-transform:none;direction:ltr;block-progression:tb;writing-mode:lr-tb;baseline-shift:baseline;text-anchor:start;white-space:normal;clip-rule:nonzero;display:inline;overflow:visible;visibility:visible;opacity:1;isolation:auto;mix-blend-mode:normal;color-interpolation:sRGB;color-interpolation-filters:linearRGB;solid-color:#000000;solid-opacity:1;fill:#ffffff;fill-opacity:1;fill-rule:nonzero;stroke:none;stroke-width:10;stroke-linecap:butt;stroke-linejoin:miter;stroke-miterlimit:4;stroke-dasharray:none;stroke-dashoffset:0;stroke-opacity:1;color-rendering:auto;image-rendering:auto;shape-rendering:auto;text-rendering:auto;enable-background:accumulate"
       d="m 294.12891,735.12305 c -8.36317,0.0625 -14.36978,3.24047 -17.44922,7.90039 -3.07944,4.65992 -3.68891,9.58993 -4.94141,13.78906 -1.2525,4.19913 -2.72582,7.58596 -6.45898,10.48828 -3.73317,2.90232 -10.23834,5.5042 -22.14063,6.24805 -13.60259,0.85011 -20.42303,-1.52393 -24.3457,-4.52149 -3.92267,-2.99756 -5.6038,-7.16734 -7.59375,-12.10546 -1.98996,-4.93813 -4.55715,-11.2023 -11.31445,-13.97266 -6.7573,-2.77036 -15.49154,-1.68593 -29.42579,3.36914 -13.93425,5.05507 -21.33089,9.82269 -24.74023,16.28125 -3.40934,6.45855 -1.36357,12.91106 0.27539,17.97656 1.63896,5.06551 3.02002,9.3446 1.93164,14.16016 -1.08838,4.81556 -4.79957,11.0108 -15.7832,19.08008 -10.98362,8.06926 -18.005,9.75834 -22.92578,9.35742 -4.92079,-0.40093 -8.58956,-2.99787 -12.933597,-6.07617 -4.34404,-3.07831 -9.889807,-6.95946 -17.072265,-5.63672 -7.182459,1.32273 -13.944322,6.95615 -22.933594,18.74218 -8.989267,11.78603 -12.635416,19.79575 -12.011719,27.07227 0.623697,7.27653 5.833719,11.59933 9.951172,14.97461 4.117452,3.37528 7.593339,6.22766 9.28125,10.86719 1.687911,4.63953 1.916495,11.85748 -2.960938,24.58398 -4.877436,12.72651 -9.872201,17.94445 -14.228515,20.26758 -4.356314,2.32313 -8.847434,2.12187 -14.166016,1.88086 -5.318581,-0.24101 -12.083148,-0.50766 -17.410156,4.48828 -5.3270078,4.99594 -7.9699091,13.39102 -9.1601564,28.16602 -1.190246,14.77498 0.074689,23.4853 4.5332034,29.26953 4.458514,5.78422 11.178316,6.60339 16.466797,7.21679 5.28848,0.61341 9.753472,1.13257 13.68164,4.12307 3.928169,2.9904 8.02347,8.94 10.800782,22.2832 2.777315,13.3432 1.396916,20.4328 -1.011719,24.7422 -2.408636,4.3094 -6.296019,6.5677 -10.900391,9.2402 -4.604372,2.6725 -10.438589,6.1048 -12.21875,13.1875 -1.78016,7.0828 0.534835,15.5735 7.521484,28.6465 6.986648,13.073 12.758947,19.7162 19.636719,22.1719 6.877772,2.4556 12.973488,-0.4871 17.753907,-2.8301 4.780418,-2.343 8.819016,-4.3198 13.740234,-3.9277 4.921217,0.392 11.582511,3.1827 21.132808,12.9062 9.55031,9.7235 12.22179,16.4339 12.5254,21.3613 0.3036,4.9275 -1.74535,8.9285 -4.17383,13.666 -2.42848,4.7376 -5.48215,10.7805 -3.15039,17.7012 2.33175,6.9208 8.87108,12.8108 21.8164,20.0313 12.94535,7.2204 21.3942,9.6899 28.50782,8.0371 7.11361,-1.6528 10.64951,-7.4247 13.40429,-11.9805 2.75479,-4.5557 5.08166,-8.4035 9.4336,-10.7344 4.35193,-2.3309 11.4667,-3.583 24.75781,-0.5664 13.2911,3.0167 19.16465,7.218 22.08398,11.1992 2.91933,3.9813 3.35875,8.4553 3.87696,13.754 0.5182,5.2986 1.21679,12.0319 6.91992,16.5937 5.70313,4.5618 14.38961,5.9812 29.18359,5.0566 14.79396,-0.9245 23.23532,-3.4142 28.32617,-8.6503 5.09085,-5.2362 4.94432,-12.0044 4.79883,-17.3262 -0.14549,-5.3218 -0.26618,-9.8153 2.13477,-14.1289 2.40094,-4.3137 7.70741,-9.2134 20.51953,-13.8614 12.81211,-4.6479 20.02632,-4.2903 24.63476,-2.5195 4.60845,1.7709 7.39654,5.2975 10.69727,9.4746 3.30073,4.1772 7.52891,9.4628 14.79297,10.2168 7.26406,0.7541 15.33953,-2.7454 27.28515,-11.5215 11.94562,-8.776 17.70058,-15.4364 19.15235,-22.5937 1.45177,-7.1573 -2.33048,-12.7716 -5.33008,-17.1699 -2.9996,-4.3984 -5.5314,-8.1141 -5.84375,-13.0411 -0.31235,-4.9269 1.50418,-11.917 9.76953,-22.7539 8.26535,-10.8369 14.52702,-14.4356 19.36133,-15.4375 4.83431,-1.0018 9.08595,0.4561 14.12109,2.1856 5.03515,1.7295 11.45016,3.8906 17.96875,0.5976 6.51859,-3.2929 11.41999,-10.6022 16.72461,-24.4433 5.30463,-13.8412 6.54503,-22.5554 3.89649,-29.3613 -2.64854,-6.806 -8.86599,-9.4843 -13.76758,-11.5625 -4.9016,-2.0783 -9.04021,-3.8348 -11.9668,-7.8106 -2.92659,-3.9758 -5.17838,-10.8387 -4.08398,-24.42382 1.09439,-13.58512 4.41603,-19.99875 7.9414,-23.45507 3.52538,-3.45633 7.89141,-4.52778 13.0625,-5.79493 5.17109,-1.26714 11.73764,-2.91658 15.44141,-9.21093 3.70377,-6.29435 3.87213,-15.09364 0.85156,-29.60547 -3.02056,-14.51183 -6.68615,-22.51289 -12.59375,-26.80664 -5.90759,-4.29375 -12.58687,-3.18662 -17.83398,-2.28516 -5.24712,0.90146 -9.6775,1.66101 -14.28906,-0.10156 -4.61157,-1.76257 -10.21662,-6.31768 -16.64063,-18.33789 -6.42401,-12.02021 -7.0971,-19.21179 -6,-24.02539 1.09711,-4.8136 4.19229,-8.07582 7.85742,-11.9375 3.66513,-3.86169 8.29499,-8.79816 8.00781,-16.09571 -0.28717,-7.29755 -4.90036,-14.79209 -15.2871,-25.36718 -10.38674,-10.57508 -17.79875,-15.32378 -25.08985,-15.74219 -7.29109,-0.41841 -12.30954,4.1218 -16.23633,7.7168 -3.92678,3.595 -7.24374,6.63028 -12.07617,7.64062 -4.83243,1.01034 -12.0112,0.20929 -23.91406,-6.42969 -11.90287,-6.63898 -16.35561,-12.32638 -18.03516,-16.96875 -1.67954,-4.64237 -0.84109,-9.05921 0.1543,-14.28906 0.99539,-5.22985 2.22225,-11.88564 -1.96484,-17.86914 -4.1871,-5.9835 -12.121,-9.79339 -26.57618,-13.07422 -7.22732,-1.64034 -12.95704,-2.39508 -17.73632,-2.35937 z m 0.0742,10 c 3.63812,-0.0272 8.70397,0.58039 15.44922,2.11133 13.49,3.06176 18.90872,6.64391 20.59571,9.05468 1.68699,2.41077 1.30802,5.14991 0.33398,10.26758 -0.97404,5.11767 -2.46947,12.00057 0.26563,19.56055 2.73509,7.55997 9.44494,14.97907 22.56836,22.29883 13.12343,7.31976 22.96258,9.13163 30.83203,7.48632 7.86945,-1.64531 12.93868,-6.53483 16.78125,-10.05273 3.84256,-3.5179 5.97451,-5.27991 8.91211,-5.11133 2.93759,0.16858 8.83416,2.89668 18.52734,12.76563 9.69317,9.86893 12.31398,15.81366 12.42969,18.7539 0.1157,2.94024 -1.68301,5.03949 -5.26953,8.81836 -3.58653,3.77887 -8.56694,8.7609 -10.35352,16.59961 -1.78658,7.83871 -0.1531,17.70808 6.92969,30.96094 7.08278,13.25285 14.38079,20.09453 21.89062,22.96484 7.50984,2.87031 14.41814,1.49932 19.55274,0.61719 5.13459,-0.88213 7.88159,-1.21234 10.26172,0.51758 2.38012,1.72992 5.86473,7.21305 8.68359,20.75586 2.81886,13.54279 1.81064,19.96004 0.31836,22.49609 -1.49228,2.53605 -4.14098,3.33034 -9.20117,4.57031 -5.06019,1.23997 -11.9427,2.73874 -17.6836,8.36719 -5.74089,5.62845 -9.70353,14.81471 -10.91015,29.79297 -1.20662,14.97825 1.23401,24.67965 6,31.15425 4.76598,6.4747 11.32068,9.0562 16.11719,11.0899 4.7965,2.0337 7.28259,3.2405 8.3496,5.9824 1.06702,2.7419 1.03636,9.2374 -3.91406,22.1543 -4.95042,12.917 -9.26805,17.7709 -11.89453,19.0977 -2.62648,1.3268 -5.2838,0.5635 -10.21094,-1.1289 -4.92713,-1.6924 -11.52802,-4.1529 -19.40039,-2.5215 -7.87237,1.6314 -16.17029,7.2178 -25.2832,19.166 -9.11292,11.9481 -12.30553,21.4277 -11.79688,29.4512 0.50866,8.0234 4.62529,13.7389 7.56055,18.0429 2.93527,4.304 4.37592,6.6633 3.79102,9.5469 -0.58491,2.8836 -4.12545,8.3315 -15.27344,16.5215 -11.14798,8.19 -17.40329,9.9405 -20.33008,9.6367 -2.92679,-0.3038 -4.74858,-2.3831 -7.97851,-6.4707 -3.22994,-4.0876 -7.45437,-9.7256 -14.95899,-12.6094 -7.50462,-2.8837 -17.50493,-2.6714 -31.63086,2.4532 -14.12592,5.1246 -21.93579,11.3737 -25.8457,18.3984 -3.90991,7.0247 -3.5369,14.058 -3.39453,19.2656 0.14237,5.2077 0.0784,7.9725 -1.97266,10.082 -2.05104,2.1096 -7.9751,4.7778 -21.78125,5.6407 -13.80612,0.8628 -20.01476,-1.0469 -22.3125,-2.8848 -2.29774,-1.8379 -2.7058,-4.5727 -3.21289,-9.7578 -0.50709,-5.1851 -1.01155,-12.2119 -5.76562,-18.6953 -4.75408,-6.4834 -13.28148,-11.7112 -27.93555,-15.0371 -14.65406,-3.326 -24.60432,-2.292 -31.69141,1.5039 -7.08709,3.7958 -10.57382,9.915 -13.26953,14.373 -2.69571,4.4581 -4.24536,6.7482 -7.11133,7.4141 -2.86597,0.6659 -9.2921,-0.289 -21.37304,-7.0274 -12.08097,-6.7383 -16.27148,-11.7038 -17.21094,-14.4921 -0.93946,-2.7884 0.19587,-5.3095 2.57226,-9.9454 2.37639,-4.6359 5.75029,-10.8194 5.25586,-18.8437 -0.49442,-8.0243 -4.84148,-17.0314 -15.37109,-27.752 -10.52962,-10.7205 -19.460479,-15.2306 -27.474609,-15.8691 -8.014131,-0.6385 -14.255709,2.6252 -18.933594,4.918 -4.677885,2.2928 -7.219222,3.38 -9.990235,2.3906 -2.771012,-0.9894 -7.659543,-5.2667 -14.179687,-17.4668 -6.520142,-12.2001 -7.361746,-18.6425 -6.644531,-21.4961 0.717214,-2.8536 3.035396,-4.3614 7.541015,-6.9766 4.50562,-2.6151 10.686953,-5.992 14.609375,-13.0097 3.922423,-7.0178 5.134376,-16.9468 2.072266,-31.6582 -3.062114,-14.7115 -8.136304,-23.3333 -14.533203,-28.20315 -6.3969,-4.86986 -13.410876,-5.49936 -18.585938,-6.09961 -5.175061,-0.60025 -7.902885,-1.05821 -9.699218,-3.38867 -1.796334,-2.33046 -3.595144,-8.57293 -2.484375,-22.36133 1.110768,-13.78839 3.886888,-19.66286 6.033203,-21.67578 2.146314,-2.01292 4.91072,-2.02686 10.115234,-1.79102 5.204514,0.23585 12.230198,0.73622 19.324219,-3.04687 7.094021,-3.78309 13.483722,-11.48014 18.861328,-25.51172 5.377608,-14.03159 5.768219,-24.02872 3.019531,-31.58398 -2.748688,-7.55527 -8.308735,-11.87874 -12.33789,-15.18165 -4.029156,-3.3029 -6.076836,-5.16201 -6.328125,-8.09374 -0.25129,-2.93174 1.611001,-9.1553 10,-20.1543 8.388995,-10.999 13.899087,-14.43971 16.792968,-14.97266 2.893882,-0.53294 5.227634,0.94865 9.478516,3.96094 4.250882,3.01229 9.89107,7.23188 17.9043,7.88476 8.01322,0.65289 17.55016,-2.3669 29.66015,-11.26367 12.10998,-8.89676 17.84286,-17.09558 19.61524,-24.9375 1.77238,-7.84191 -0.56806,-14.48453 -2.17188,-19.4414 -1.60381,-4.95687 -2.32091,-7.62828 -0.94726,-10.23047 1.37364,-2.60219 6.3048,-6.83132 19.30859,-11.54883 13.00379,-4.71751 19.50028,-4.6337 22.22266,-3.51758 2.72238,1.11612 3.88474,3.62479 5.83203,8.45703 1.94728,4.83224 4.41078,11.43294 10.79883,16.31446 6.38804,4.88151 16.04349,7.49393 31.04101,6.55664 13.12282,-0.82013 21.78754,-3.77445 27.65235,-8.33399 5.8648,-4.55954 8.41697,-10.53901 9.90429,-15.52539 1.48732,-4.98637 2.33191,-9.05979 3.70313,-11.13476 1.37121,-2.07498 2.81239,-3.36455 9.17968,-3.41211 z m -39.39648,84.99218 c -85.21034,4e-4 -154.39413,69.18419 -154.39453,154.39454 -7.3e-4,85.21113 69.18339,154.39613 154.39453,154.39643 85.21193,8e-4 154.39721,-69.1845 154.39648,-154.39643 -3.9e-4,-85.21114 -69.18535,-154.39525 -154.39648,-154.39454 z m 0,10 c 79.80672,-6.7e-4 144.39611,64.58782 144.39648,144.39454 6.8e-4,79.80743 -64.58901,144.39713 -144.39648,144.39643 -79.80672,-3e-4 -144.39521,-64.5897 -144.39453,-144.39643 3.7e-4,-79.80598 64.58855,-144.39416 144.39453,-144.39454 z"
       id="path4631"
       inkscape:connector-curvature="0" />
    <path
       style="color:#000000;font-style:normal;font-variant:normal;font-weight:normal;font-stretch:normal;font-size:medium;line-height:normal;font-family:sans-serif;text-indent:0;text-align:start;text-decoration:none;text-decoration-line:none;text-decoration-style:solid;text-decoration-color:#000000;letter-spacing:normal;word-spacing:normal;text-transform:none;direction:ltr;block-progression:tb;writing-mode:lr-tb;baseline-shift:baseline;text-anchor:start;white-space:normal;clip-rule:nonzero;display:inline;overflow:visible;visibility:visible;opacity:1;isolation:auto;mix-blend-mode:normal;color-interpolation:sRGB;color-interpolation-filters:linearRGB;solid-color:#000000;solid-opacity:1;fill:#ffffff;fill-opacity:1;fill-rule:nonzero;stroke:none;stroke-width:10;stroke-linecap:butt;stroke-linejoin:miter;stroke-miterlimit:4;stroke-dasharray:none;stroke-dashoffset:0;stroke-opacity:1;color-rendering:auto;image-rendering:auto;shape-rendering:auto;text-rendering:auto;enable-background:accumulate"
       d="m 634.89453,563.58008 c -1.50501,-0.003 -3.0998,0.0204 -4.78711,0.0723 -13.46857,0.41337 -21.19936,1.9962 -26.44531,5.85938 -5.24595,3.86318 -6.23002,9.80878 -6.66211,14.17969 -0.43209,4.37091 -0.66228,7.90616 -3.16602,11.73437 -2.50373,3.82821 -7.65122,8.37145 -19.21875,12.98828 -11.56753,4.61684 -18.42917,4.86662 -22.88085,3.81446 -4.45169,-1.05217 -7.05392,-3.45795 -10.37696,-6.33008 -3.32304,-2.87213 -8.13141,-6.50404 -14.5957,-5.69336 -6.46429,0.81068 -13.15912,4.98489 -23.21094,13.95898 -10.05182,8.9741 -14.95663,15.15491 -16.49219,21.48633 -1.53555,6.33142 1.53135,11.52022 4.00977,15.14649 2.47841,3.62626 4.57451,6.48322 5.11719,11.02539 0.54267,4.54216 -0.4814,11.33056 -6.375,22.30273 -5.8936,10.97216 -10.98766,15.5753 -15.07422,17.63086 -4.08657,2.05556 -7.62577,1.88438 -12.01758,1.82031 -4.39181,-0.0641 -10.41097,0.2433 -14.8418,5.01953 -4.43082,4.77624 -6.87689,12.27754 -8.80859,25.61328 -1.93171,13.33575 -1.71385,21.22344 1.17969,27.06055 2.89354,5.83711 8.57715,7.84082 12.80664,9.02539 4.22949,1.18457 7.67056,2.02576 11.00586,5.15625 3.3353,3.1305 6.91511,8.98815 9.45312,21.18164 2.53801,12.19348 1.59444,18.9939 -0.21484,23.19531 -1.80928,4.20142 -4.63147,6.3472 -8.03711,9.1211 -3.40565,2.77389 -7.81831,6.87783 -8.14258,13.38476 -0.32427,6.50694 2.62451,13.82575 9.7168,25.28321 7.09227,11.45744 12.32831,17.35909 18.29687,19.9707 5.96856,2.61161 11.60991,0.4928 15.61133,-1.31836 4.00142,-1.81116 7.17883,-3.37925 11.74609,-3.125 4.56727,0.25426 11.07536,2.44103 20.85743,10.15039 9.78207,7.70937 13.42947,13.52696 14.74414,17.9082 1.31467,4.38125 0.53279,7.83664 -0.29297,12.1504 -0.82576,4.31375 -1.56904,10.29358 2.36523,15.48632 3.93428,5.19274 10.89763,8.90497 23.69532,13.12305 12.79767,4.21808 20.60265,5.37283 26.85351,3.53711 6.25087,-1.83572 9.21023,-7.08363 11.11133,-11.04297 1.9011,-3.95934 3.32806,-7.20439 6.99023,-9.94531 3.66218,-2.74092 10.05296,-5.24878 22.50196,-5.63086 12.44897,-0.38207 18.98309,1.72893 22.80664,4.24023 3.82355,2.51131 5.4454,5.66261 7.58593,9.49805 2.14054,3.83544 5.4158,8.89275 11.76758,10.3418 6.35179,1.44905 14.07295,-0.18277 26.58789,-5.17774 12.51495,-4.99496 19.23539,-9.12637 22.84375,-14.55078 3.60837,-5.42441 2.5009,-11.34834 1.41211,-15.60351 -1.08879,-4.25518 -2.08061,-7.65757 -1.03711,-12.11133 1.0435,-4.45377 4.32632,-10.48261 13.61719,-18.77735 9.29089,-8.29474 15.65425,-10.87622 20.19727,-11.41015 4.54301,-0.53393 7.8092,0.83618 11.91406,2.39844 4.10486,1.56225 9.86508,3.33219 15.66211,0.35937 5.79702,-2.97282 10.66277,-9.18584 17.03906,-21.05664 6.37629,-11.8708 8.8689,-19.35734 8.14649,-25.83203 -0.72242,-6.47469 -5.37818,-10.2996 -8.94727,-12.85938 -3.56909,-2.55977 -6.51476,-4.52881 -8.57813,-8.61132 -2.06337,-4.08252 -3.42414,-10.81247 -1.63867,-23.13868 1.78547,-12.32619 4.99976,-18.39164 8.13672,-21.7207 3.13696,-3.32905 6.52113,-4.38065 10.66992,-5.82226 4.1488,-1.44162 9.69846,-3.7875 12.22852,-9.79102 2.53006,-6.00352 2.26346,-13.88987 -0.48242,-27.08203 -2.74588,-13.19217 -5.64797,-20.52988 -10.36328,-25.02539 -4.71531,-4.49552 -10.74159,-4.43293 -15.1211,-4.09961 -4.37951,0.33331 -7.90063,0.71902 -12.10547,-1.08203 -4.20484,-1.80105 -9.57352,-6.08178 -16.1289,-16.67188 -6.55538,-10.5901 -7.99353,-17.30424 -7.73047,-21.87109 0.26305,-4.56686 2.18035,-7.54699 4.43164,-11.31836 2.25129,-3.77137 4.99329,-9.13608 3.07226,-15.36133 -1.92102,-6.22525 -7.19411,-12.09478 -17.77734,-20.43555 -10.58323,-8.34076 -17.52164,-12.09688 -24.02344,-12.50976 -6.5018,-0.41289 -11.07803,3.50776 -14.21875,6.57812 -3.14072,3.07037 -5.59184,5.63197 -9.9707,6.95508 -4.37886,1.32311 -11.24141,1.49252 -23.07031,-2.40625 -11.45926,-3.77693 -16.91257,-7.86791 -19.7168,-11.43945 -2.80422,-3.57154 -3.35795,-6.93473 -4.01367,-11.05664 -0.65572,-4.12192 -1.44792,-9.61032 -6.18945,-13.48828 -3.99538,-3.26771 -9.77856,-4.74839 -18.4375,-5.16993 l 0,-0.17968 -4.99024,-0.0117 z m -0.0215,10 c 10.76104,0.0231 15.45773,1.74434 17.11718,3.10156 1.65946,1.35722 1.98334,3.162 2.64454,7.31836 0.66119,4.15636 1.6239,10.05626 6.02539,15.66211 4.40148,5.60585 11.84306,10.60612 24.45117,14.76172 13.01483,4.28965 22.15582,4.57682 29.09375,2.48047 6.93793,-2.09636 11.11775,-6.49244 14.06836,-9.37696 2.9506,-2.88451 3.92819,-3.91731 6.59375,-3.74804 2.66555,0.16927 8.50711,2.53192 18.46875,10.38281 9.96163,7.85088 13.62453,12.97903 14.41211,15.53125 0.78757,2.55222 0.0115,3.74403 -2.10352,7.28711 -2.11501,3.54308 -5.41134,8.63339 -5.82812,15.86914 -0.41679,7.23575 1.99833,16.05715 9.21093,27.70898 7.21261,11.65184 14.03106,17.74792 20.69336,20.60157 6.6623,2.85364 12.68831,2.17251 16.80274,1.85937 4.11442,-0.31314 5.52786,-0.47578 7.46094,1.36719 1.93307,1.84297 4.88805,7.40687 7.47265,19.82422 2.58461,12.41734 2.09574,18.69914 1.05859,21.16015 -1.03714,2.46101 -2.39916,2.87611 -6.29687,4.23047 -3.89771,1.35437 -9.69556,3.13339 -14.66602,8.40821 -4.97045,5.27481 -8.78942,13.58448 -10.7539,27.14648 -1.96448,13.56199 -0.6599,22.61552 2.60937,29.08398 3.26927,6.46847 8.32273,9.81978 11.67578,12.22461 3.35306,2.40483 4.54173,3.18937 4.8379,5.84375 0.29616,2.65439 -1.01774,8.81665 -7.01954,19.99024 -6.00179,11.1736 -10.41447,15.67189 -12.79101,16.89062 -2.37654,1.21874 -3.68463,0.66105 -7.54102,-0.80664 -3.85639,-1.46769 -9.44249,-3.83035 -16.64062,-2.98437 -7.19813,0.84597 -15.46515,4.75646 -25.6875,13.88281 -10.22238,9.12636 -15.04196,16.89839 -16.69531,23.95508 -1.65336,7.05669 0.063,12.87345 1.08593,16.87109 1.02289,3.99764 1.42849,5.36217 -0.0508,7.58594 -1.47927,2.22377 -6.44474,6.10115 -18.22461,10.80273 -11.77987,4.70159 -18.05212,5.30894 -20.65625,4.71485 -2.60413,-0.59409 -3.2488,-1.86157 -5.25976,-5.46485 -2.01097,-3.60327 -4.77209,-9.00354 -10.83008,-12.98242 -6.058,-3.97888 -14.90447,-6.29733 -28.60156,-5.87695 -13.69708,0.42038 -22.38502,3.27633 -28.1875,7.61914 -5.80248,4.34281 -8.2257,9.90142 -10.01172,13.62109 -1.78602,3.71968 -2.35145,5.02673 -4.91407,5.7793 -2.56261,0.75257 -8.8602,0.52894 -20.90625,-3.44141 -12.04604,-3.97034 -17.24261,-7.53529 -18.85546,-9.66406 -1.61286,-2.12877 -1.28946,-3.51571 -0.51368,-7.56836 0.77578,-4.05265 2.13186,-9.96242 0.0488,-16.9043 -2.08303,-6.94187 -7.37002,-14.40443 -18.13281,-22.88671 -10.7628,-8.4823 -19.25368,-11.8784 -26.49023,-12.28125 -7.23656,-0.40286 -12.66655,2.29846 -16.42579,4 -3.75923,1.70153 -5.03169,2.33821 -7.47851,1.26757 -2.44682,-1.07063 -7.12898,-5.28972 -13.80469,-16.07421 -6.6757,-10.78448 -8.3634,-16.85591 -8.23047,-19.52344 0.13294,-2.66754 1.27117,-3.52094 4.4707,-6.12696 3.19954,-2.60601 8.03763,-6.26307 10.9043,-12.91992 2.86668,-6.65684 3.61474,-15.77147 0.82227,-29.1875 -2.79248,-13.41601 -7.11576,-21.47737 -12.40039,-26.4375 -5.28464,-4.96013 -11.17883,-6.38126 -15.15235,-7.49414 -3.97352,-1.11288 -5.35874,-1.44307 -6.54492,-3.83594 -1.18618,-2.39286 -2.06043,-8.63308 -0.24219,-21.18554 1.81825,-12.55246 4.42765,-18.288 6.24414,-20.2461 1.8165,-1.95809 3.2373,-1.8805 7.36329,-1.82031 4.12598,0.0602 10.18338,0.37015 16.6582,-2.88672 6.47482,-3.25686 12.90614,-9.7598 19.39062,-21.83203 6.48449,-12.07223 8.35396,-21.02603 7.49414,-28.22265 -0.85981,-7.19663 -4.46261,-12.0737 -6.79101,-15.48047 -2.3284,-3.40678 -3.17641,-4.55077 -2.54688,-7.14649 0.62954,-2.59572 3.97023,-7.93777 13.43164,-16.38476 9.46143,-8.447 15.14684,-11.16376 17.79688,-11.4961 2.65004,-0.33234 3.69058,0.6396 6.8125,3.33789 3.12192,2.6983 7.5618,6.82901 14.61523,8.4961 7.05344,1.66709 16.16139,0.81995 28.88868,-4.25977 12.72729,-5.07972 19.91378,-10.73512 23.88085,-16.80078 3.96708,-6.06566 4.34212,-12.12018 4.74805,-16.22656 0.40594,-4.10639 0.49014,-5.52573 2.64063,-7.10938 2.15049,-1.58364 8.14477,-3.52888 20.82226,-3.91797 1.58095,-0.0486 3.06619,-0.0693 4.45899,-0.0664 z m 0.24218,67.89062 c -67.72139,-7.2e-4 -122.7281,55.00517 -122.72851,122.72657 -7.1e-4,67.72218 55.00633,122.72923 122.72851,122.72851 67.7214,-4.1e-4 122.72728,-55.00712 122.72657,-122.72851 -4.1e-4,-67.7206 -55.00597,-122.72616 -122.72657,-122.72657 z m 0,10 c 62.31625,3.8e-4 112.72619,50.41032 112.72657,112.72657 6.5e-4,62.31697 -50.40959,112.72814 -112.72657,112.72851 -62.31771,6.6e-4 -112.72917,-50.4108 -112.72851,-112.72851 3.7e-4,-62.31698 50.41154,-112.72723 112.72851,-112.72657 z"
       id="path4635"
       inkscape:connector-curvature="0" />
    <path
       style="color:#000000;font-style:normal;font-variant:normal;font-weight:normal;font-stretch:normal;font-size:medium;line-height:normal;font-family:sans-serif;text-indent:0;text-align:start;text-decoration:none;text-decoration-line:none;text-decoration-style:solid;text-decoration-color:#000000;letter-spacing:normal;word-spacing:normal;text-transform:none;direction:ltr;block-progression:tb;writing-mode:lr-tb;baseline-shift:baseline;text-anchor:start;white-space:normal;clip-rule:nonzero;display:inline;overflow:visible;visibility:visible;opacity:1;isolation:auto;mix-blend-mode:normal;color-interpolation:sRGB;color-interpolation-filters:linearRGB;solid-color:#000000;solid-opacity:1;fill:#ffffff;fill-opacity:1;fill-rule:nonzero;stroke:none;stroke-width:10;stroke-linecap:butt;stroke-linejoin:miter;stroke-miterlimit:4;stroke-dasharray:none;stroke-dashoffset:0;stroke-opacity:1;color-rendering:auto;image-rendering:auto;shape-rendering:auto;text-rendering:auto;enable-background:accumulate"
       d="m 947.2832,769.3457 c -3.13561,0.007 -5.7831,0.39312 -8.13086,1.39453 -2.34776,1.00142 -4.27935,2.74456 -5.45703,4.60938 -2.35534,3.72963 -2.46223,7.16811 -3.28711,10.09961 -0.82487,2.9315 -1.87017,5.45316 -5.06054,8.23047 -3.19038,2.7773 -8.81788,5.79135 -18.9043,8.16601 -11.95429,2.81442 -18.62341,2.04868 -22.63086,0.45313 -4.00745,-1.59556 -5.89632,-4.08808 -8.4043,-7.12305 -1.25399,-1.51748 -2.62533,-3.21453 -4.76562,-4.625 -2.1403,-1.41047 -5.16898,-2.23759 -8.20117,-1.87305 -6.06439,0.7291 -12.21699,4.60382 -22.48829,12.91016 -10.27127,8.30632 -15.34641,13.51155 -17.32812,19.28906 -0.99086,2.88876 -0.81823,6.02415 0.11328,8.41211 0.93151,2.38797 2.3058,4.08336 3.52734,5.62696 2.44309,3.0872 4.48518,5.45659 5.20704,9.70898 0.72185,4.25239 0.0752,10.93413 -5.17774,22.03516 -5.25297,11.101 -10.00966,15.83615 -13.75586,17.97461 -3.74619,2.13846 -6.87388,2.06216 -10.81054,2.13085 -1.96834,0.0344 -4.15069,0.0478 -6.5879,0.8418 -2.4372,0.79402 -4.97061,2.64811 -6.57617,5.2461 -3.21111,5.19596 -4.01784,12.4215 -3.92773,25.63086 0.0901,13.20935 0.99547,20.42262 4.27734,25.57421 1.64094,2.5758 4.20058,4.39574 6.64844,5.15625 2.44786,0.76052 4.62904,0.74459 6.59766,0.75196 3.93722,0.0147 7.06489,-0.1065 10.83984,1.98047 3.77495,2.08696 8.59412,6.75882 13.99805,17.78711 5.40393,11.02829 6.14239,17.69894 5.47851,21.96093 -0.66387,4.262 -2.67526,6.66082 -5.07617,9.78129 -1.20045,1.5602 -2.55029,3.2733 -3.44922,5.6738 -0.89893,2.4005 -1.03008,5.537 0,8.4121 2.06016,5.7502 7.20618,10.8873 17.58985,19.0527 10.38364,8.1655 16.58843,11.9552 22.6621,12.6016 3.03684,0.3232 6.05493,-0.5449 8.17579,-1.9844 2.12085,-1.4395 3.46803,-3.155 4.70117,-4.6894 2.46627,-3.0688 4.32139,-5.5864 8.30664,-7.2364 3.98525,-1.65 10.64317,-2.5065 22.63476,0.1446 11.99159,2.651 17.6675,6.2338 20.58594,9.4101 2.91844,3.1764 3.53946,6.2419 4.48242,10.0645 0.47148,1.9113 0.97065,4.035 2.28711,6.2344 1.31647,2.1993 3.68803,4.2589 6.57813,5.246 5.7802,1.9743 13.00322,1.1523 25.86133,-1.875 12.85811,-3.0272 19.69025,-5.5154 23.98242,-9.8613 2.14608,-2.1729 3.35008,-5.0712 3.54687,-7.6269 0.1968,-2.5557 -0.30548,-4.6807 -0.73632,-6.6016 -0.8617,-3.8418 -1.6732,-6.8631 -0.47852,-11.0078 1.19468,-4.1447 4.67532,-9.883 14.22464,-17.6055 9.5493,-7.7224 15.8885,-9.92734 20.1914,-10.22849 4.3029,-0.30115 7.0895,1.12709 10.666,2.77339 1.7882,0.8232 3.7585,1.7574 6.2988,2.0997 2.5403,0.3422 5.6293,-0.2291 8.2031,-1.8731 5.1477,-3.28802 9.0101,-9.4464 14.6602,-21.38671 5.6501,-11.94032 7.9638,-18.83303 7.2422,-24.89844 -0.3608,-3.0327 -1.8785,-5.78194 -3.7539,-7.52929 -1.8754,-1.74735 -3.8487,-2.68017 -5.6192,-3.54102 -3.5409,-1.7217 -6.4086,-2.96998 -8.9043,-6.48828 -2.4956,-3.5183 -4.8126,-9.81879 -4.8964,-22.09961 -0.084,-12.28083 2.1464,-18.61219 4.5937,-22.16406 2.4473,-3.55187 5.2994,-4.8397 8.8164,-6.60938 1.7585,-0.88484 3.717,-1.8425 5.5684,-3.61523 1.8514,-1.77273 3.331,-4.54279 3.6504,-7.58008 0.6387,-6.07459 -1.7696,-12.93477 -7.5821,-24.79688 -5.8125,-11.86208 -9.7575,-17.96786 -14.9492,-21.18554 -2.5958,-1.60885 -5.6912,-2.13648 -8.2265,-1.75977 -2.5354,0.37672 -4.4928,1.3362 -6.2696,2.1836 -3.5535,1.69479 -6.3185,3.16051 -10.625,2.91797 -4.3065,-0.24255 -10.6762,-2.36164 -20.3301,-9.95313 -9.65374,-7.59149 -13.21363,-13.28037 -14.4648,-17.4082 -1.25117,-4.12784 -0.48095,-7.16076 0.32812,-11.01367 0.40454,-1.92646 0.87825,-4.05666 0.64649,-6.60938 -0.23176,-2.55272 -1.47481,-5.43487 -3.65039,-7.57812 -4.35116,-4.28652 -11.21705,-6.68171 -24.11524,-9.53321 -8.06111,-1.78213 -13.90497,-2.61554 -18.55078,-2.60547 z m 0.0215,10 c 3.36691,-0.007 8.68641,0.67023 16.37109,2.36914 12.29511,2.71818 17.86111,5.52048 19.25391,6.89258 0.6964,0.68606 0.65537,0.74731 0.71093,1.35938 0.0556,0.61206 -0.0983,1.86776 -0.47265,3.65039 -0.74867,3.56525 -2.1503,9.24827 -0.11328,15.96875 2.03701,6.72048 7.22555,14.01158 17.85351,22.36914 10.628,8.35756 18.9379,11.67934 25.9492,12.07422 7.0114,0.39487 12.204,-2.30479 15.4922,-3.87305 1.6441,-0.78413 2.8276,-1.22998 3.4356,-1.32031 0.6079,-0.0903 0.6573,-0.14585 1.4882,0.36914 1.6619,1.02997 5.6976,5.77849 11.2383,17.08594 5.5407,11.30742 6.8197,17.40724 6.6153,19.35156 -0.1023,0.97216 -0.1771,0.97721 -0.6211,1.40234 -0.444,0.42513 -1.5212,1.08746 -3.1485,1.90625 -3.2545,1.63759 -8.5702,4.08442 -12.5547,9.86719 -3.9844,5.78277 -6.4496,14.38608 -6.3574,27.90625 0.092,13.52018 2.6753,22.08845 6.7383,27.81641 4.063,5.72795 9.4128,8.10408 12.6894,9.69726 1.6384,0.79659 2.724,1.44415 3.1739,1.86328 0.4498,0.41914 0.5251,0.42379 0.6406,1.39453 0.231,1.94149 -0.9656,8.05751 -6.3516,19.43946 -5.3859,11.38194 -9.3582,16.18391 -11.0058,17.23633 -0.8238,0.5262 -0.8732,0.47075 -1.4824,0.38867 -0.6093,-0.0821 -1.7984,-0.50975 -3.4532,-1.27149 -3.3095,-1.52347 -8.5394,-4.15436 -15.5449,-3.66406 -7.0055,0.4903 -15.2682,3.92592 -25.7812,12.4277 -10.51303,8.5018 -15.6019,15.8635 -17.54692,22.6114 -1.94501,6.7479 -0.46729,12.4117 0.33008,15.9668 0.39869,1.7775 0.57064,3.0295 0.52344,3.6425 -0.0472,0.613 -0.004,0.6756 -0.69141,1.3711 -1.37384,1.3911 -6.90138,4.2687 -19.1582,7.1543 -12.25685,2.8857 -18.4875,2.7766 -20.33789,2.1446 -0.92519,-0.316 -0.91474,-0.3905 -1.23047,-0.918 -0.31573,-0.5275 -0.72192,-1.7256 -1.1582,-3.4942 -0.87256,-3.5371 -2.07682,-9.2643 -6.82813,-14.4355 -4.75131,-5.1712 -12.58931,-9.4896 -25.79101,-12.4082 -13.20169,-2.9186 -22.12886,-2.3074 -28.61719,0.3789 -6.48833,2.6864 -9.99519,7.3732 -12.27734,10.2129 -1.14108,1.4198 -2.01489,2.3345 -2.52344,2.6797 -0.50855,0.3452 -0.52793,0.4179 -1.5,0.3144 -1.94415,-0.2069 -7.64094,-2.7359 -17.53906,-10.5195 -9.89811,-7.7836 -13.69803,-12.722 -14.35743,-14.5625 -0.32969,-0.9202 -0.26441,-0.9575 -0.0488,-1.5332 0.21558,-0.5757 0.89891,-1.6402 2.00976,-3.084 2.22171,-2.8875 5.9504,-7.4009 7.03125,-14.33982 1.08085,-6.93891 -0.43158,-15.75915 -6.38086,-27.9004 -5.94928,-12.14125 -11.99273,-18.73896 -18.13867,-22.13671 -6.14594,-3.39776 -11.99726,-3.21684 -15.64062,-3.23047 -1.82168,-0.007 -3.08086,-0.12033 -3.66797,-0.30274 -0.58711,-0.1824 -0.65643,-0.15408 -1.18164,-0.97851 -1.05043,-1.64887 -2.62505,-7.67789 -2.71094,-20.26953 -0.0859,-12.59166 1.40565,-18.64136 2.43359,-20.30469 0.51397,-0.83167 0.58338,-0.80369 1.16797,-0.99414 0.58459,-0.19046 1.84269,-0.32173 3.66406,-0.35352 3.64276,-0.0636 9.49681,0.0381 15.59571,-3.44336 6.09889,-3.48146 12.05285,-10.16154 17.83593,-22.38281 5.78308,-12.22125 7.17331,-21.06295 5.99805,-27.98633 -1.17525,-6.92337 -4.96586,-11.3835 -7.22656,-14.24023 -1.13035,-1.42837 -1.82744,-2.4841 -2.05078,-3.05664 -0.22334,-0.57254 -0.28786,-0.60858 0.0293,-1.53321 0.63431,-1.84925 4.36523,-6.83986 14.15625,-14.75781 9.79101,-7.91793 15.45338,-10.52248 17.39454,-10.75586 0.97057,-0.11669 0.99258,-0.0453 1.50585,0.29297 0.51328,0.33825 1.39822,1.24033 2.5586,2.64453 2.32075,2.8084 5.89159,7.44724 12.41601,10.04492 6.52443,2.59768 15.45848,3.08672 28.61915,-0.0117 11.10432,-2.6143 18.33246,-6.13583 23.17968,-10.35546 4.84722,-4.21963 7.02168,-9.15728 8.1211,-13.06446 1.09941,-3.90718 1.61976,-6.68418 2.11523,-7.46875 0.24774,-0.39228 0.29653,-0.4816 0.92578,-0.75 0.62925,-0.2684 1.95554,-0.58881 4.22852,-0.59375 z m -16.52344,47.07422 c -6.91921,0.1761 -13.80365,1.12904 -20.52344,2.84766 -49.334,12.61868 -79.17537,62.97265 -66.55664,112.30664 12.61867,49.33401 62.97264,79.17538 112.30664,66.55668 49.33399,-12.61876 79.17539,-62.97271 66.55669,-112.30668 -10.0244,-39.19011 -44.45355,-67.31471 -84.85552,-69.32031 l -0.002,0 c -2.30853,-0.11456 -4.62003,-0.14267 -6.92578,-0.084 z m 6.43164,10.07031 c 36.06539,1.78957 66.71371,26.82906 75.66211,61.8125 11.2795,44.09814 -15.24756,88.85919 -59.3457,100.13868 -44.09816,11.27949 -88.85923,-15.24754 -100.13868,-59.34571 -11.2795,-44.09814 15.24755,-88.85921 59.34571,-100.13867 7.98914,-2.04326 16.24042,-2.87569 24.47656,-2.4668 z"
       id="path4813"
       inkscape:connector-curvature="0" />
    <path
       inkscape:connector-curvature="0"
       id="path4846"
       d="m -1193.2143,434.50225 c -44.9934,0.33608 -1.0134,53.89285 -77.4511,58.66992 -87.3575,5.45951 -26.5924,-71.88105 -108.8731,-42.03125 -82.2807,29.8498 13.9385,50.23871 -56.5996,102.06055 -70.5381,51.82183 -61.2315,-46.09167 -114.3125,23.5039 -53.0809,69.59558 38.886,34.72594 7.5625,116.45703 -31.3234,81.7311 -76.4307,-5.66907 -83.459,81.57618 -7.0283,87.24524 51.488,8.18955 69.3242,93.88086 17.8362,85.6913 -67.3631,36.55092 -26.1074,113.74609 41.2558,77.19517 47.7432,-20.94514 109.0762,41.49997 61.333,62.4452 -36.9082,67.1685 39.5332,109.8047 76.4414,42.6362 28.8383,-43.4336 114.1953,-24.0605 85.357,19.373 5.2656,76.4595 92.623,71 87.3575,-5.4595 0.7799,-52.1288 83.0606,-81.9785 82.2807,-29.8498 45.7646,61.4761 116.3027,9.6542 70.53823,-51.8218 -27.5262,-44.2774 25.5547,-113.873 53.08103,-69.59557 71.73713,26.9752 103.06063,-54.75585 31.3234,-81.7311 -47.0948,-22.36609 -40.0664,-109.61133 7.0283,-87.24525 74.9319,-16.0919 57.0957,-101.78321 -17.8362,-85.6913 -51.7111,6.64634 -92.9668,-70.54882 -41.25583,-77.19517 54.3369,-54.04901 -6.9961,-116.49414 -61.33303,-62.44514 -39.90823,33.54828 -116.34963,-9.08789 -76.4414,-42.63618 16.4917,-74.84568 -68.8653,-94.21876 -10.6696,-2.42163 -18.9141,-3.45816 -25.3418,-3.41015 z m -60.1093,145.07226 a 228.15973,228.15973 0 0 1 228.1601,228.16016 228.15973,228.15973 0 0 1 -228.1601,228.16013 228.15973,228.15973 0 0 1 -228.1582,-228.16013 228.15973,228.15973 0 0 1 228.1582,-228.16016 z"
       style="fill:#ffffff;fill-opacity:0.7820069;stroke:#000000;stroke-width:2.59627795;stroke-miterlimit:4;stroke-dasharray:none;stroke-opacity:1" />
    <path
       id="path4848"
       d="m -1954.4051,740.12388 c -29.461,0.22006 -0.6647,35.28807 -50.7149,38.41601 -57.2002,3.5748 -17.411,-47.06664 -71.2871,-27.52148 -53.8761,19.54516 9.1267,32.89604 -37.0605,66.82813 -46.1873,33.93208 -40.0951,-30.18138 -74.8516,15.38867 -34.7565,45.57004 25.4632,22.73967 4.9531,76.25586 -20.5101,53.51618 -50.0464,-3.7127 -54.6484,53.41406 -4.602,57.12677 33.7137,5.36339 45.3926,61.47267 11.6788,56.1093 -44.1074,23.9324 -17.0938,74.4785 27.0136,50.5461 31.2601,-13.7142 71.4199,27.1738 40.1599,40.8881 -24.1658,43.979 25.8868,71.8965 50.0525,27.9175 18.883,-28.4391 74.7734,-15.7539 55.8903,12.6852 3.4463,50.065 60.6465,46.4902 57.2002,-3.5748 0.5106,-34.1325 54.3867,-53.6777 53.8761,-19.5451 29.9671,40.2524 76.1543,6.3203 46.1872,-33.9321 -18.0241,-28.9905 16.7324,-74.5605 34.7565,-45.5701 46.9724,17.6607 67.4824,-35.8555 20.5101,-53.5162 -30.8383,-14.6428 -26.2363,-71.76953 4.602,-57.12676 49.0656,-10.53722 37.3867,-66.64648 -11.6788,-56.10927 -33.8594,4.35277 -60.873,-46.19336 -27.0136,-50.54613 35.5797,-35.39124 -4.5801,-76.2793 -40.1598,-40.88805 -26.131,21.9663 -76.1836,-5.95117 -50.0526,-27.91747 10.7966,-49.00623 -45.0937,-61.69141 -6.9863,-1.58564 -12.3831,-2.26581 -16.5918,-2.23437 z m -39.3594,94.99219 a 149.39523,149.39523 0 0 1 149.3965,149.39453 149.39523,149.39523 0 0 1 -149.3965,149.3965 149.39523,149.39523 0 0 1 -149.3945,-149.3965 149.39523,149.39523 0 0 1 149.3945,-149.39453 z"
       style="fill:#ffffff;fill-opacity:0.7820069;stroke:#000000;stroke-width:1.70000005;stroke-miterlimit:4;stroke-dasharray:none;stroke-opacity:1"
       inkscape:connector-curvature="0" />
    <path
       id="path4850"
       d="m -1615.1161,558.58091 c -1.4489,-0.003 -2.9889,0.0182 -4.623,0.0684 -52.2922,1.60492 -5.2034,25.0151 -53.793,44.4082 -48.5896,19.3931 -30.5614,-30.00624 -69.5879,4.83594 -39.0265,34.84218 12.0921,22.50887 -12.664,68.59766 -24.7562,46.08878 -42.6994,-3.34086 -50.1993,48.43554 -7.4999,51.77641 23.7316,9.46848 34.3926,60.6875 10.661,51.21902 -34.8582,24.88723 -7.3223,69.3711 27.536,44.48387 24.2658,-8.0005 65.3555,24.38281 41.0897,32.3833 -10.705,41.46887 38.9824,57.8457 49.6875,16.37684 13.4462,-21.72516 65.7383,-23.33008 52.2922,-1.60491 18.4573,38.64896 67.0469,19.25586 48.5896,-19.39309 -3.6652,-25.28672 35.3613,-60.1289 39.0265,-34.84219 38.9802,17.74308 63.7364,-28.34571 24.7561,-46.08878 -19.0605,-17.01461 -11.5606,-68.79101 7.4999,-51.7764 41.2664,-11.46262 30.6055,-62.68164 -10.661,-51.21902 -25.5383,-0.78176 -53.0742,-45.26563 -27.536,-44.48386 24.242,-35.3081 -16.8477,-67.6914 -41.0897,-32.38331 -20.0664,15.81629 -69.7539,-0.56055 -48.1347,-15.86506 -6.8771,-40.99749 -51.793,-41.09375 z m 0.2305,77.89063 a 117.72727,117.72727 0 0 1 117.7266,117.72656 117.72727,117.72727 0 0 1 -117.7266,117.72851 117.72727,117.72727 0 0 1 -117.7285,-117.72851 117.72727,117.72727 0 0 1 117.7285,-117.72656 z"
       style="fill:#ffffff;fill-opacity:0.7820069;stroke:#000000;stroke-width:1.70000005;stroke-miterlimit:4;stroke-dasharray:none;stroke-opacity:1"
       inkscape:connector-curvature="0" />
    <path
       id="path4852"
       d="m -1312.7059,757.202 c -21.6344,0.047 2.6764,22.38925 -39.7051,32.36719 -50.2299,11.82571 -24.3676,-33.68487 -64.4922,-1.23633 -40.1246,32.44854 9.7889,16.67773 -12.2832,63.32227 -22.0721,46.64454 -41.5297,-1.94967 -41.1777,49.65234 0.352,51.60201 19.1451,2.74491 41.8515,49.08399 22.7065,46.33907 -27.419,31.25227 13.1446,63.15044 40.5635,31.8981 14.0822,-13.2546 64.4687,-2.1153 50.3866,11.1394 7.3404,40.9214 57.5703,29.0957 50.2299,-11.8257 -1.5836,-19.276 38.541,-51.72459 40.1246,-32.44854 36.5705,19.77739 58.6426,-26.86719 22.0721,-46.64454 -16.0581,-10.7808 -16.4102,-62.38281 -0.352,-51.60201 38.2631,-16.26054 15.5567,-62.59961 -22.7064,-46.33908 -18.4384,5.8317 -59.002,-26.06641 -40.5635,-31.89811 11.1425,-40.05206 -39.2441,-51.19141 -7.8729,-1.74052 -13.4546,-2.49697 -17.4609,-2.48828 z m -9.834,57.15235 a 87.310043,87.310043 0 0 1 80.2597,65.5664 87.310043,87.310043 0 0 1 -62.9511,106.22266 87.310043,87.310043 0 0 1 -106.2227,-62.95117 87.310043,87.310043 0 0 1 62.9512,-106.22266 87.310043,87.310043 0 0 1 25.9629,-2.61523 z"
       style="fill:#ffffff;fill-opacity:0.7820069;stroke:#000000;stroke-width:2.02061749;stroke-miterlimit:4;stroke-dasharray:none;stroke-opacity:1"
       inkscape:connector-curvature="0" />
    <path
       id="path4854"
       d="m -1615.0848,543.58091 c -1.6188,-0.003 -3.3225,0.0212 -5.1153,0.0762 -14.2596,0.43765 -23.725,1.66002 -32.0664,7.80274 -8.3414,6.14271 -10.2273,16.61261 -10.6855,21.24804 -0.4582,4.63544 -0.5436,5.65339 -1.584,7.24414 -1.0404,1.59076 -4.1489,5.01989 -14.5566,9.17383 -10.4078,4.15396 -15.0231,3.80833 -16.8731,3.3711 -1.8499,-0.43724 -2.6145,-1.11811 -6.1387,-4.16407 -3.5241,-3.04596 -12.0984,-9.3398 -22.3769,-8.05078 -10.2786,1.28903 -17.9867,6.92069 -28.6289,16.42188 -10.6422,9.50119 -17.1073,16.52271 -19.5488,26.58984 -2.4416,10.06713 2.8442,19.29877 5.4726,23.14453 2.6284,3.84576 3.2178,4.68261 3.4434,6.57031 0.2255,1.88771 0.047,6.51266 -5.2559,16.38477 -5.3027,9.8721 -9.0595,12.57348 -10.7578,13.42773 -1.6983,0.85426 -2.7213,0.82381 -7.3789,0.75586 -4.6576,-0.0679 -15.2732,0.62439 -22.3184,8.21875 -7.0451,7.59437 -9.3298,16.86145 -11.375,30.98047 -2.0451,14.11903 -2.4837,23.6542 2.1172,32.93555 4.6009,9.28135 14.5829,12.95468 19.0684,14.21094 4.4854,1.25626 5.4753,1.51749 6.8613,2.81836 1.386,1.30086 4.2223,4.95872 6.5059,15.92968 2.2835,10.97094 1.1425,15.45714 0.3906,17.20313 -0.7519,1.74598 -1.5562,2.37854 -5.168,5.32031 -3.6117,2.94177 -11.2988,10.29429 -11.8144,20.64063 -0.5156,10.34634 3.6923,18.91447 11.2011,31.04492 7.5089,12.13039 13.3008,19.71655 22.7911,23.86914 9.4903,4.15259 19.5005,0.55163 23.7441,-1.36914 4.2436,-1.92078 5.1684,-2.35566 7.0664,-2.25 1.898,0.10566 6.4213,1.0831 15.2227,8.01953 8.8013,6.93646 10.8111,11.10711 11.3574,12.92773 0.5463,1.82062 0.3386,2.82162 -0.5371,7.39649 -0.8758,4.57486 -2.0389,15.14758 4.2168,23.40429 6.2557,8.25672 14.9858,12.11622 28.5351,16.58204 13.5493,4.46581 22.8636,6.55363 32.8028,3.63476 9.9391,-2.91886 15.2904,-12.11154 17.3066,-16.31054 2.0162,-4.19902 2.4449,-5.1266 3.9668,-6.26563 1.5219,-1.13903 5.6174,-3.29881 16.8184,-3.64258 11.2008,-0.34377 15.4187,1.5598 17.0078,2.60352 1.5891,1.04372 2.0756,1.94607 4.3457,6.01367 2.2701,4.0676 8.1759,12.91474 18.2754,15.21875 10.0994,2.30401 19.2675,-0.35228 32.5175,-5.64063 13.2501,-5.28834 21.7274,-9.67572 27.4649,-18.30078 5.7374,-8.62505 3.9281,-19.10837 2.7734,-23.62109 -1.1547,-4.51272 -1.4239,-5.49877 -0.9902,-7.34961 0.4336,-1.85084 2.1836,-6.13651 10.543,-13.59961 7.4447,-6.64656 11.7805,-8.36043 13.9765,-8.81445 -2.913,7.15051 -2.9789,14.79918 -2.9023,26.02344 0.094,13.82705 0.3304,22.22653 5.8437,30.88085 2.7567,4.32716 7.8067,7.99145 12.1153,9.33008 4.3086,1.33863 7.4118,1.19521 9.5273,1.20313 4.2311,0.0158 4.6351,-0.0418 6.0391,0.73437 1.4039,0.77618 4.9969,3.51827 9.8554,13.4336 4.8586,9.91534 4.8251,14.43835 4.5782,16.02343 -0.2469,1.58508 -0.5391,1.86736 -3.1192,5.22071 -1.29,1.67667 -3.3064,4.04038 -4.8887,8.26562 -1.5822,4.22524 -1.7793,10.46301 -0.049,15.29297 3.4609,9.6599 9.9531,14.9918 20.8223,23.5391 10.8692,8.5472 17.5819,13.5996 27.7851,14.6855 5.1016,0.543 11.1165,-1.1205 14.8497,-3.6543 3.7331,-2.5338 5.5537,-5.0502 6.8789,-6.6992 2.6504,-3.2979 2.8557,-3.6481 4.3378,-4.2617 1.4822,-0.6137 5.8689,-1.7136 16.6504,0.6699 10.7815,2.3835 14.2953,5.2287 15.3809,6.4102 1.0856,1.1815 1.1253,1.5873 2.1387,5.6953 0.5067,2.054 1.0968,5.1033 3.414,8.9746 2.3172,3.8712 7.0708,7.914 11.9258,9.5722 9.71,3.3165 17.9274,1.5672 31.3867,-1.6015 13.4594,-3.1688 21.5942,-5.2676 28.8047,-12.5684 3.6052,-3.6504 6.0559,-9.3902 6.4023,-13.8886 0.3464,-4.4985 -0.4842,-7.4924 -0.9472,-9.5567 -0.926,-4.1286 -1.0733,-4.5092 -0.6289,-6.0508 0.4443,-1.5415 2.3187,-5.6545 10.9043,-12.5976 8.5856,-6.94319 13.0012,-7.91732 14.6015,-8.02933 1.6004,-0.112 1.9417,0.11162 5.7852,1.88086 1.9217,0.88463 4.6751,2.32339 9.1465,2.92578 4.4713,0.60239 10.5961,-0.59169 14.9199,-3.35351 8.6477,-5.52365 12.402,-13.04039 18.3164,-25.53906 5.9144,-12.4987 9.3451,-20.1681 8.1328,-30.35743 -0.6061,-5.09466 -3.5642,-10.58849 -6.8652,-13.66406 -3.301,-3.07557 -6.1599,-4.29169 -8.0625,-5.2168 -3.8053,-1.85021 -4.1948,-1.97261 -5.1231,-3.28125 -0.9282,-1.30863 -2.9754,-5.3394 -3.0508,-16.38086 -0.075,-11.04149 1.916,-15.1009 2.8262,-16.42187 0.9102,-1.32097 1.2986,-1.44978 5.0781,-3.35156 1.8898,-0.95089 4.7315,-2.20586 7.9903,-5.32617 3.2588,-3.12033 6.1432,-8.65344 6.6797,-13.75586 1.073,-10.20486 -2.4626,-17.8254 -8.5469,-30.24219 -6.0843,-12.41673 -9.9406,-19.88171 -18.6621,-25.28711 -4.3608,-2.7027 -10.502,-3.8135 -14.9649,-3.15039 -4.4628,0.6631 -7.196,2.13817 -9.1054,3.04883 -3.8189,1.82132 -4.1562,2.04919 -5.7578,1.95898 -1.6017,-0.0902 -6.0314,-1.0027 -14.711,-7.82812 -8.6796,-6.82543 -10.6108,-10.91403 -11.0762,-12.44922 -0.4653,-1.53519 -0.3226,-1.91606 0.5469,-6.05664 0.4348,-2.0703 1.2244,-5.07498 0.8164,-9.56836 -0.4079,-4.49339 -2.937,-10.19837 -6.5918,-13.79883 -7.3095,-7.20093 -15.4713,-9.189 -28.9726,-12.17383 -8.4376,-1.86535 -14.8077,-2.85465 -20.7324,-2.8418 -3.9983,0.009 -7.965,0.46285 -12.0313,2.19727 -4.0662,1.73442 -7.8806,5.12945 -9.9883,8.4668 -4.2152,6.6747 -3.9086,10.7766 -4.4589,12.73242 -0.5504,1.95582 -0.4665,2.0615 -2,3.39648 -1.5336,1.33499 -5.5624,3.83764 -14.6309,5.97266 -10.7479,2.5304 -15.1482,1.49187 -16.6387,0.89844 -1.4904,-0.59343 -1.7012,-0.9416 -4.3965,-4.20313 -1.3476,-1.63076 -3.2033,-4.12279 -6.9707,-6.60547 -3.7673,-2.48268 -9.8046,-4.06358 -14.8984,-3.45117 -10.1876,1.22481 -16.8304,6.36776 -27.582,15.0625 -5.7603,4.65829 -10.2663,8.37933 -13.7305,12.32031 -0.1516,-2.62347 -0.042,-6.13022 0.6582,-10.96484 1.6065,-11.09039 4.2122,-14.91554 5.5156,-16.29883 1.3035,-1.38329 2.2759,-1.70356 6.6758,-3.23242 4.3999,-1.52886 14.1391,-5.80944 18.1621,-15.35547 4.023,-9.54603 2.999,-19.03496 0.092,-33.00195 -2.9071,-13.96699 -5.7563,-23.07655 -13.2539,-30.22461 -7.4975,-7.14806 -18.1347,-7.18748 -22.7793,-6.83399 -4.6446,0.35349 -5.6628,0.44572 -7.4101,-0.30273 -1.7474,-0.74845 -5.6644,-3.21383 -11.5625,-12.74219 -5.8982,-9.52837 -6.3594,-14.13525 -6.25,-16.0332 0.1093,-1.89796 0.6476,-2.76792 3.0351,-6.76758 2.3876,-3.99966 7.0955,-13.53726 4.041,-23.43555 -3.0544,-9.89828 -9.9377,-16.51114 -21.1425,-25.34179 -11.2049,-8.83065 -19.2421,-13.97827 -29.5801,-14.63477 -10.3381,-0.6565 -18.5129,6.15198 -21.8438,9.4082 -3.3308,3.25623 -4.0513,3.98139 -5.8711,4.53125 -1.8197,0.54987 -6.4058,1.17782 -17.0488,-2.33007 -10.3104,-3.39828 -13.7735,-6.57997 -14.9805,-8.11719 -1.2069,-1.53723 -1.3536,-2.36565 -2.0039,-6.45313 -0.6502,-4.08747 -1.9107,-13.25948 -9.7343,-19.6582 -7.8237,-6.39871 -17.1056,-7.59207 -29.7383,-7.61914 z m -0.062,30 c 5.1527,0.011 8.1761,0.54474 9.7656,0.89844 0.064,0.40754 -3e-4,0.20575 0.1406,1.09179 0.6667,4.1908 2.0384,12.62547 8.0371,20.26563 5.9988,7.64016 15.4286,13.54973 29.1856,18.08398 14.2007,4.68053 25.6202,5.42429 35.1172,2.55469 9.497,-2.8696 15.4035,-9.09822 18.164,-11.79687 0.1358,-0.13277 0.1199,-0.1385 0.2305,-0.25 1.2799,0.58757 4.6501,2.06936 11.6523,7.58789 7.0006,5.51718 9.2284,8.44842 10.0997,9.55664 -0.082,0.13301 -0.091,0.11904 -0.1875,0.28125 -1.9788,3.31479 -6.6541,10.51527 -7.2247,20.41992 -0.5705,9.90465 2.8216,20.83331 10.6914,33.54687 7.8699,12.71358 16.1381,20.62501 25.2579,24.53125 9.1197,3.90625 17.6506,2.93164 21.5,2.63868 0.1875,-0.0143 0.1788,-0.0288 0.3339,-0.043 0.6036,1.27427 2.2346,4.57519 4.0508,13.30078 1.8167,8.7279 1.6386,12.40485 1.5938,13.8125 -0.1483,0.049 -0.1462,0.032 -0.3242,0.0937 -3.6467,1.26712 -11.8563,3.77746 -18.6602,10.99805 -6.8039,7.22058 -11.2315,17.77249 -13.375,32.57031 -2.1435,14.79777 -0.8931,26.17293 3.582,35.02734 4.4752,8.85442 11.6365,13.58996 14.7735,15.83985 0.1535,0.11013 0.1566,0.0924 0.2851,0.18164 -0.3561,1.36147 -1.2296,4.93934 -5.4492,12.79492 -4.2191,7.85478 -6.7194,10.55635 -7.6582,11.60547 -0.1451,-0.0578 -0.1323,-0.0696 -0.3086,-0.13672 -3.6079,-1.37313 -11.51,-4.72834 -21.3633,-3.57031 -9.8532,1.15802 -20.0278,6.39752 -31.1816,16.35546 -11.1539,9.95799 -17.5083,19.47516 -19.7715,29.13477 -2.2632,9.65961 0.1778,17.89076 1.1348,21.63086 0.047,0.18386 0.06,0.17279 0.1015,0.32422 -1.1496,0.8153 -4.1181,2.9928 -12.3965,6.29687 -8.2813,3.30526 -11.9347,3.76665 -13.3281,3.9668 -0.074,-0.13742 -0.057,-0.13819 -0.1484,-0.30273 -1.8814,-3.37112 -5.7779,-11.02034 -14.0703,-16.4668 -8.2925,-5.44647 -19.4552,-7.97236 -34.4004,-7.51367 -14.9452,0.45869 -25.9303,3.66467 -33.8731,9.60937 -7.9427,5.94471 -11.3622,13.81882 -13.0332,17.29883 -0.081,0.16943 -0.064,0.16915 -0.1289,0.31055 -1.4016,-0.11431 -5.0763,-0.35072 -13.5468,-3.14258 -8.4692,-2.79139 -11.5642,-4.78537 -12.7598,-5.52735 0.032,-0.1525 0.047,-0.14153 0.082,-0.32617 0.7258,-3.79154 2.6561,-12.15765 -0.1953,-21.66015 -2.8514,-9.50251 -9.776,-18.612 -21.5195,-27.86719 -11.7436,-9.25523 -22.2192,-13.86066 -32.125,-14.41211 -9.9059,-0.55145 -17.5884,3.28308 -21.1055,4.875 -0.1726,0.0781 -0.159,0.0894 -0.3008,0.15625 -1.0006,-0.98888 -3.6618,-3.53274 -8.3554,-11.11523 -4.692,-7.57976 -5.7814,-11.09712 -6.2207,-12.43555 0.1227,-0.0969 0.1269,-0.0799 0.2734,-0.19922 2.9934,-2.43815 9.8494,-7.60452 13.7734,-16.7168 3.9241,-9.11227 4.4747,-20.54306 1.4278,-35.18164 -3.047,-14.63854 -8.1118,-24.89969 -15.3457,-31.68945 -7.234,-6.78976 -15.5833,-8.79084 -19.3008,-9.83203 -0.1821,-0.051 -0.1788,-0.0344 -0.3301,-0.0742 -0.1311,-1.40228 -0.5339,-5.06191 0.7441,-13.88477 1.278,-8.82242 2.7028,-12.21756 3.2266,-13.52539 0.1566,0.005 0.1486,0.0207 0.3379,0.0234 3.8602,0.0563 12.4338,0.50504 21.2969,-3.95312 8.863,-4.45817 16.6316,-12.86092 23.707,-26.03321 7.0754,-13.17229 9.7902,-24.28758 8.6133,-34.13867 -1.177,-9.85109 -6.2845,-16.75217 -8.4629,-19.93945 -0.1068,-0.15623 -0.1148,-0.14164 -0.2051,-0.26953 0.8016,-1.1595 2.8452,-4.2221 9.4942,-10.15821 6.6519,-5.93877 9.9257,-7.62271 11.166,-8.28711 0.1164,0.10383 0.1,0.11119 0.2422,0.23438 2.9208,2.52446 9.2002,8.38009 18.8554,10.66211 9.6552,2.28201 21.0075,0.83947 34.8946,-4.70313 13.887,-5.5426 23.1125,-12.31211 28.5429,-20.61523 5.4304,-8.30312 5.9523,-16.87298 6.3321,-20.71484 0.019,-0.188 0,-0.18208 0.016,-0.3379 1.3593,-0.37293 4.8939,-1.40626 13.8027,-1.67968 1.4755,-0.0453 2.8518,-0.0633 4.1309,-0.0606 z m 0.2617,47.89063 c -73.1258,-7.8e-4 -132.7281,59.60074 -132.7285,132.72656 -8e-4,73.12666 59.6018,132.72929 132.7285,132.72851 73.1258,-4.4e-4 132.7273,-59.6027 132.7266,-132.72851 -5e-4,-73.12496 -59.6016,-132.72612 -132.7266,-132.72656 z m 0,30 c 56.9119,3.3e-4 102.7262,45.81467 102.7266,102.72656 6e-4,56.91255 -45.814,102.72817 -102.7266,102.72851 -56.9132,6.1e-4 -102.7291,-45.81528 -102.7285,-102.72851 3e-4,-56.91256 45.8159,-102.72717 102.7285,-102.72656 z m 304.9258,120.97265 c 2.5786,0.23085 6.0982,0.70354 11.4765,1.89258 5.3467,1.18203 8.9615,2.45374 11.3555,3.38281 -0.7808,4.11175 -1.6414,10.18445 0.6133,17.62305 1.8242,6.01824 5.5192,11.86231 10.8926,17.70508 -13.7819,-7.99306 -29.521,-12.84947 -46.1739,-13.67578 -4.3635,-0.21664 -8.7267,-0.0927 -13.0703,0.24804 5.2541,-2.22455 9.7115,-4.83438 13.3457,-7.99804 6.5041,-5.66196 9.8077,-13.01558 11.1817,-17.89844 0.1736,-0.61722 0.223,-0.75353 0.3789,-1.2793 z m -87.7871,20.7832 c 2.7277,3.17418 6.9397,7.63418 14.1621,10.50977 5.5718,2.21841 12.0947,2.98831 19.5429,2.58594 -18.8603,7.36066 -34.5694,19.92379 -45.8203,35.625 1.5497,-6.473 1.9713,-12.40148 1.0528,-17.8125 -1.3009,-7.66333 -4.7812,-12.71538 -7.3145,-16.04688 1.7281,-1.89954 4.3952,-4.64905 8.6524,-8.09179 4.258,-3.44348 7.5056,-5.47717 9.7246,-6.76954 z m 71.75,36.02539 c 0.9043,0.0109 1.8084,0.0391 2.7129,0.084 31.7279,1.57433 58.6004,23.52462 66.4726,54.30078 9.9403,38.86229 -13.2744,78.03437 -52.1367,87.97461 -38.8623,9.94027 -78.0344,-13.2744 -87.9746,-52.13672 -9.9403,-38.8623 13.2744,-78.03438 52.1367,-87.97461 l 0,0.002 c 6.1412,-1.57064 12.4586,-2.32634 18.7891,-2.25 z m 72.5976,1.25 c 6.9152,3.81557 13.4386,6.01688 19.6934,6.36915 7.7602,0.43705 13.4597,-1.83222 17.2714,-3.56055 1.4674,2.10743 3.5554,5.31908 5.9649,10.23633 2.4092,4.91674 3.6693,8.53541 4.4355,10.98633 -3.7016,1.95299 -8.9877,5.06734 -13.3984,11.46874 -3.3082,4.80134 -5.478,10.7859 -6.7656,17.86133 -0.4494,-2.55384 -0.898,-5.10788 -1.5508,-7.66015 -4.5127,-17.64238 -13.5605,-33.21551 -25.6504,-45.70118 z m -171.7773,43.29688 c -4.7769,16.76148 -5.4237,34.90928 -0.8418,52.94531 -3.5278,-4.0461 -7.2684,-7.21085 -11.3067,-9.44336 -6.8024,-3.76071 -12.921,-4.18862 -17.1054,-4.28515 -0.4077,-2.53526 -0.8963,-6.33505 -0.9336,-11.81055 -0.037,-5.47626 0.3984,-9.28359 0.7715,-11.82422 4.1824,-0.15374 10.2957,-0.66576 17.0468,-4.51953 4.47,-2.55162 8.5579,-6.24918 12.3692,-11.0625 z m 199.4453,43.00781 c 1.4145,6.44912 3.6025,11.92878 6.7578,16.37696 4.4974,6.34033 9.8247,9.38267 13.5527,11.28515 -0.7327,2.46111 -1.9412,6.09568 -4.2832,11.04492 -2.3418,4.94894 -4.3858,8.18924 -5.8242,10.31641 -3.835,-1.67642 -9.5655,-3.86695 -17.3203,-3.32422 -5.0004,0.34996 -10.1387,1.80401 -15.5039,4.35547 11.8175,-14.26074 19.7861,-31.53542 22.6211,-50.05469 z m -182.4824,46.74219 c 10.4464,13.64373 24.1689,24.31363 39.6523,31.26172 -5.0539,0.29427 -9.6404,1.19175 -13.7012,2.87305 -7.1817,2.97347 -11.3332,7.49007 -14.0175,10.70117 -2.2365,-1.2621 -5.5124,-3.2502 -9.8164,-6.6348 -4.3044,-3.38476 -7.0081,-6.09885 -8.7618,-7.97458 2.4878,-3.36579 5.8993,-8.46374 7.0957,-16.14453 0.6806,-4.369 0.4699,-9.06674 -0.4511,-14.08203 z m 129.9257,27.9082 c -3.2271,4.39626 -5.5041,8.80114 -6.7988,13.29294 -2.1529,7.4692 -1.21,13.532 -0.373,17.6328 -2.381,0.9617 -5.9767,2.2823 -11.3067,3.5372 -5.3304,1.2549 -9.1392,1.6772 -11.6992,1.8789 -1.0806,-4.0433 -2.9399,-9.8892 -8.1992,-15.6133 -3.0005,-3.2657 -6.8145,-6.0377 -11.3281,-8.4492 8.7439,0.1068 17.6216,-0.7971 26.4785,-3.0625 8.2906,-2.12066 16.0147,-5.31008 23.2265,-9.21684 z"
       style="color:#000000;font-style:normal;font-variant:normal;font-weight:normal;font-stretch:normal;font-size:medium;line-height:normal;font-family:sans-serif;text-indent:0;text-align:start;text-decoration:none;text-decoration-line:none;text-decoration-style:solid;text-decoration-color:#000000;letter-spacing:normal;word-spacing:normal;text-transform:none;direction:ltr;block-progression:tb;writing-mode:lr-tb;baseline-shift:baseline;text-anchor:start;white-space:normal;clip-rule:nonzero;display:inline;overflow:visible;visibility:visible;opacity:1;isolation:auto;mix-blend-mode:normal;color-interpolation:sRGB;color-interpolation-filters:linearRGB;solid-color:#000000;solid-opacity:1;fill:#000000;fill-opacity:1;fill-rule:nonzero;stroke:none;stroke-width:30;stroke-linecap:butt;stroke-linejoin:miter;stroke-miterlimit:4;stroke-dasharray:none;stroke-dashoffset:0;stroke-opacity:1;color-rendering:auto;image-rendering:auto;shape-rendering:auto;text-rendering:auto;enable-background:accumulate"
       inkscape:connector-curvature="0" />
  </g>
</svg>
